<?xml version="1.0" encoding="utf-8"?>
<!-- Generator: Adobe Illustrator 23.0.1, SVG Export Plug-In . SVG Version: 6.00 Build 0)  -->
<svg version="1.1" id="Layer_1" xmlns="http://www.w3.org/2000/svg" xmlns:xlink="http://www.w3.org/1999/xlink" x="0px" y="0px"
	 viewBox="0 0 556.9 372.6" style="enable-background:new 0 0 556.9 372.6;" xml:space="preserve">
<style type="text/css">
	.st0{fill:#E6E6E6;enable-background:new    ;}
	.st1{fill:#3F3D56;}
	.st2{fill:#FFFFFF;}
	.st3{opacity:0.2;fill:#231F20;enable-background:new    ;}
	.st4{opacity:7.000000e-02;fill:#231F20;enable-background:new    ;}
	.st5{fill:#231F20;}
	.st6{fill:#4F038E;}
	.st7{fill:url(#SVGID_1_);}
	.st8{fill:url(#SVGID_2_);}
	.st9{fill:url(#SVGID_3_);}
	.st10{fill:#606161;}
	.st11{fill:#FFB8B8;}
	.st12{fill:url(#SVGID_4_);}
	.st13{fill:url(#SVGID_5_);}
	.st14{fill:url(#SVGID_6_);}
	.st15{opacity:0.36;fill:#4F038E;enable-background:new    ;}
</style>
<title>Bug FIxing (fix)</title>
<path class="st0" d="M234.3,4c-45.2-9.9-97.7-2.2-128.2,33.4C93,52.5,84.9,71.6,77.6,90.4c-9.5,24.3-18.5,49.4-33.8,70.4
	c-14,19.3-33.5,35.4-40.7,58.2c-10.7,33.7,8.7,69.4,31,96.5c12,14.5,25.4,28.4,42.2,36.5c14.3,6.8,30.2,9.1,45.9,10.8
	c90.2,10,181.2,6.1,271.8,2.3c25.5-1.1,51.1-2.2,76.1-7c19.8-3.8,39.5-10.2,55.8-22.2c16.3-12,28.9-30.4,30.8-50.9
	c1.7-18.4-5.2-36.5-14.3-52.4c-7.3-12.7-16.2-25.3-17.8-39.9c-1.4-13.2,3.4-26.1,5.8-39.2c7.2-40.1-11.6-83.7-45.3-105.3
	c-22.7-14.6-50-19.3-76.4-23.7l-62.7-10.4c-18.6-3.1-34-0.9-52.4,0.2C273.4,15.5,253.8,8.2,234.3,4z"/>
<polygon class="st1" points="350.3,354.5 228.3,354.5 249.6,311.3 334.2,311.3 "/>
<rect x="218.3" y="351.4" class="st1" width="143.3" height="10.5"/>
<path class="st1" d="M469.5,61.9v246.7c0.1,6.3-5,11.4-11.3,11.5c0,0,0,0,0,0h-330c-6.3-0.1-11.3-5.2-11.3-11.5V61.9
	c-0.1-6.3,5-11.5,11.3-11.6h330C464.5,50.4,469.6,55.6,469.5,61.9z"/>
<rect x="129.9" y="64.9" class="st2" width="328.2" height="194.4"/>
<path class="st3" d="M368,130.3c-3.2,15.6-16.7,27.3-32.9,27.3c-18.6,0-33.7-15.4-33.7-34.5c0-4.6,0.9-9.2,2.6-13.4
	c-0.5,2.4-0.7,4.8-0.7,7.2c0,19,15.1,34.5,33.7,34.5C350.6,151.3,362.9,143,368,130.3z"/>
<ellipse class="st1" cx="290.5" cy="293.7" rx="7.8" ry="8"/>
<path class="st3" d="M396.4,141.4l-6.1,1.5l1.2,18.5h-31l-1.3-20.1l-6.1,1.5l11.3,177.1h6.2l-1-16.2h31l1,16.2h6.2L396.4,141.4z
	 M360.8,167.3h31l1.4,21.4h-31L360.8,167.3z M362.5,194.6h31l1.4,21.5h-31L362.5,194.6z M364.3,222h31l1.4,21.5h-31L364.3,222z
	 M367.5,271.6l-1.4-22.2h31l1.4,21.4h-30.8L367.5,271.6z M369.2,298.1l-1.4-21.5h31l1.4,21.5H369.2z"/>
<path class="st4" d="M406.7,246.6c0.5-7.9-2.1-15.7-7.2-21.8c-1,3.6-0.2,7.4-0.2,11.2s-1,8-4.3,9.8c-3.5-2.6-4.4-7.5-5.1-11.8
	c-2.3-16.1-4.6-32.3-6.9-48.4c-2.3,1.1-5.2,0.2-7-1.6s-3-4.2-4.1-6.6c-4.8-10.6-9.7-21.6-10.1-33.2c1.8,2.5,3.7,5,6.2,6.7
	s6,2.3,8.6,0.8c1.6-1.1,3-2.6,3.9-4.4c1.8-2.9,3.5-6.3,3.1-9.7c-0.3-1.7-0.9-3.4-1.6-5.1c-2.3-6.2-2.7-12.9-3-19.5
	c-0.1-0.9,0-1.9,0.4-2.7c0.6-0.9,1.4-1.5,2.4-1.7c5.5-1.6,11.4,1.3,13.5,6.7c1.1,3.1,0.8,6.6,1,9.9c0.7,9.9,6.1,18.8,8.1,28.5
	c1.5,7.6,0.8,15.5,0,23.2l-4.3,45.5"/>
<path class="st5" d="M353.6,143l58.5,227.3c0.4,1.6,2,2.6,3.6,2.2c0,0,0,0,0,0l0,0c1.6-0.5,2.6-2.1,2.1-3.8l-9-34.8h31l9.4,36.4
	c0.4,1.6,2,2.6,3.6,2.2c0,0,0,0,0,0l0,0c1.6-0.5,2.6-2.1,2.1-3.8l-58.5-227.3l-5.8,1.6l4.8,18.8h-31l-5.2-20.3L353.6,143z
	 M394.7,278.5h31l5.6,21.8h-31L394.7,278.5z M387.6,250.8h31l5.6,21.8h-30.8v0.8L387.6,250.8z M380.5,223.1h31l5.6,21.8h-31
	L380.5,223.1z M373.3,195.3h31l5.6,21.8h-31L373.3,195.3z M366.2,167.6h31l5.6,21.8h-31L366.2,167.6z M438.5,327.9h-31l-5.6-21.8h31
	L438.5,327.9z"/>
<path class="st6" d="M386,145.3c-0.9,2-2.5,3.6-4.5,4.7l-8.2,5.2c-0.4,0.2-0.7,0.5-0.9,0.8c-0.2,0.6-0.1,1.3,0.3,1.9
	c0.4,1.1,1,2.1,1.8,3.1c0.7,0.9,1.9,1.5,3,1.5c1-0.2,2-0.6,2.8-1.2l9.4-6.4c0.7-0.4,1.3-0.9,1.7-1.6c0.3-0.6,0.4-1.2,0.4-1.8
	c0.3-2.9-0.2-5.9-1.3-8.6C388.7,138.7,387.3,143,386,145.3z"/>
<linearGradient id="SVGID_1_" gradientUnits="userSpaceOnUse" x1="376.6172" y1="229.371" x2="385.2878" y2="209.6505" gradientTransform="matrix(1 0 0 -1 -0.4 368.34)">
	<stop  offset="0" style="stop-color:#010101;stop-opacity:0"/>
	<stop  offset="0.95" style="stop-color:#010101"/>
</linearGradient>
<path class="st7" d="M385.7,145.3c-1,2-2.6,3.6-4.5,4.7l-8.4,5.2c-0.4,0.2-0.7,0.5-0.9,0.8c-0.2,0.6-0.1,1.3,0.3,1.9
	c0.4,1.1,1,2.1,1.8,3.1c0.8,0.9,1.9,1.5,3.1,1.5c1.1-0.2,2-0.6,2.9-1.2l9.6-6.4c0.7-0.4,1.3-0.9,1.7-1.6c0.3-0.6,0.4-1.2,0.4-1.8
	c0.3-2.9-0.2-5.9-1.3-8.6C388.4,138.7,387,143,385.7,145.3z"/>
<path class="st6" d="M369.4,159.7L369.4,159.7c-1.2,1-3,0.8-4-0.4c0,0,0,0-0.1-0.1l-9.2-11.9c-1-1.3-0.8-3.1,0.5-4.2l0,0
	c1.2-1,3-0.8,4,0.4c0,0,0,0.1,0.1,0.1l9.2,11.9C370.8,156.9,370.6,158.7,369.4,159.7z"/>
<linearGradient id="SVGID_2_" gradientUnits="userSpaceOnUse" x1="365.5095" y1="218.7893" x2="360.2695" y2="214.1193" gradientTransform="matrix(1 0 0 -1 -0.4 368.34)">
	<stop  offset="0" style="stop-color:#010101;stop-opacity:0"/>
	<stop  offset="0.95" style="stop-color:#010101"/>
</linearGradient>
<path class="st8" d="M369.4,159.7L369.4,159.7c-1.2,1-3,0.8-4-0.4c0,0,0,0-0.1-0.1l-9.2-11.9c-1-1.3-0.8-3.1,0.5-4.2l0,0
	c1.2-1,3-0.8,4,0.4c0,0,0,0.1,0.1,0.1l9.2,11.9C370.8,156.9,370.6,158.7,369.4,159.7z"/>
<path class="st6" d="M386.5,181.3L386.5,181.3c-2.2,1.8-5.5,1.5-7.3-0.8c0,0-0.1-0.1-0.1-0.1l-16.8-21.8c-1.8-2.4-1.4-5.7,0.9-7.6
	l0,0c2.2-1.8,5.5-1.5,7.3,0.8c0,0,0.1,0.1,0.1,0.1l16.8,21.8C389.2,176.1,388.8,179.5,386.5,181.3z"/>
<linearGradient id="SVGID_3_" gradientUnits="userSpaceOnUse" x1="393.066" y1="217.251" x2="366.606" y2="194.851" gradientTransform="matrix(1 0 0 -1 -0.4 368.34)">
	<stop  offset="0" style="stop-color:#010101;stop-opacity:0"/>
	<stop  offset="0.95" style="stop-color:#010101"/>
</linearGradient>
<path class="st9" d="M386.5,181.3L386.5,181.3c-2.2,1.8-5.5,1.5-7.3-0.8c0,0-0.1-0.1-0.1-0.1l-16.8-21.8c-1.8-2.4-1.4-5.7,0.9-7.6
	l0,0c2.2-1.8,5.5-1.5,7.3,0.8c0,0,0.1,0.1,0.1,0.1l16.8,21.8C389.2,176.1,388.8,179.5,386.5,181.3z"/>
<path class="st6" d="M336.4,82.5c-19.4,0-35.3,16.2-35.3,36.1s15.8,36.1,35.3,36.1s35.3-16.2,35.3-36.1S355.8,82.5,336.4,82.5z
	 M336.8,150.4c-17.1,0-31-14.2-31-31.7s13.9-31.8,31-31.8s31,14.2,31,31.8S353.9,150.4,336.8,150.4z"/>
<path class="st6" d="M336.4,82.5c-19.4,0-35.3,16.2-35.3,36.1s15.8,36.1,35.3,36.1s35.3-16.2,35.3-36.1S355.8,82.5,336.4,82.5z
	 M336.8,150.4c-17.1,0-31-14.2-31-31.7s13.9-31.8,31-31.8s31,14.2,31,31.8S353.9,150.4,336.8,150.4z"/>
<path class="st10" d="M411.7,205.6c-1.2,7.8,0.6,15.9,3.9,23c0.7,1.3,1.2,2.7,1.4,4.1c0.2,1.5-0.4,2.9-1.7,3.8
	c-1.5,0.8-3.4,0-4.7-1.1c-4-3-6.4-7.7-8.3-12.4c-3.2-7.9-5.3-16.3-6.1-24.8c-0.5-3.8-0.3-7.7,0.6-11.4c1-3.1,2.5-5.9,4.6-8.4
	c1.1-1.5,2.5-2.8,4.1-3.8c2.6-1.3,5.7-1.1,8.2,0.4c3,1.9,3.4,4,3.4,7.3C416.9,190.6,412.9,197.7,411.7,205.6z"/>
<path class="st10" d="M402.4,204.1c-1.3,1.8-2.3,3.8-3.2,5.9c-0.6,2.2-0.9,4.6-0.8,6.9c0,3.9,0.2,7.9,0.7,11.8
	c0.2,2.2,0.5,4.6-0.3,6.6s-3.3,3.4-4.9,2c-0.6-0.6-1-1.3-1.2-2c-5.6-12.9-7.5-27.2-5.6-41.2c0.7-4.6,1.8-9.3,4.2-13.1
	s6.2-6.8,10.4-7c2.3-0.1,6.1,0.8,7.6,2.9s0.5,5.9,0,8.5C408.2,192,405.9,198.3,402.4,204.1z"/>
<path class="st11" d="M366.1,157.8c-0.4,0.7,0.6,1.8,0,2.3c-0.4,0.4-1,0.1-1.4,0.2c-0.6,0.2-1,0.8-0.9,1.5c0.1,0.6,0.4,1.2,0.8,1.8
	l1.1,1.7c0.1,0.3,0.3,0.5,0.5,0.7c0.2,0.2,0.5,0.4,0.8,0.5c1.2,0.5,2.6,0.3,3.7-0.4c0.2-0.1,0.4-0.3,0.6-0.5
	c0.2-0.2,0.3-0.4,0.3-0.7c0.3-1.7-0.2-3.4-1.3-4.6C369.5,159.3,367.4,157.7,366.1,157.8z"/>
<path class="st11" d="M385.7,108.5c-0.5,2.5-0.5,5.1-0.1,7.7l0.5,4.9c0,1.2,0.3,2.3,0.9,3.4c1.2,1.7,3.6,1.9,5.6,2l0.4,4.1
	c0,0.5,0.1,1.1,0.4,1.5c0.6,0.9,1.8,1.3,2.8,1c3-0.6,4.7-3.7,5.5-6.7c1.2-4.2,1.4-8.6,0.6-12.8c-0.4-3.1-1.8-6-3.9-8.2
	C394.1,101.1,387.2,102.6,385.7,108.5z"/>
<path class="st10" d="M391.5,97.6c-2.4-0.4-5-1-7,0.3c-1.9,1.4-2.6,3.9-1.8,6.1c0.9,2.1,2.6,3.8,4.8,4.5c2.2,0.8,5,1.1,5.9,3.3
	c0.6,1.5,0,3.3,0.9,4.6l2-3.3c0.1-0.1,0.1-0.2,0.3-0.3c0.1,0,0.3,0,0.4,0.1c1.7,0.9,2.4,3.1,1.4,4.8c-0.4,0.7-1,1.2-1.7,1.5
	c1.9,1.4,2.8,3.8,2.4,6.1c1.2,0.5,2.5,0.3,3.5-0.6c0.9-0.9,1.6-2,2-3.1c0.7-1.5,1.2-3.1,1.7-4.7c0.7-2.1,0.9-4.2,0.7-6.4
	c-0.2-2.2-1.4-4.1-3.3-5.3c-1.4-0.3-2.4-1.7-2.4-3.1C400.5,96.9,395.5,98.3,391.5,97.6z"/>
<linearGradient id="SVGID_4_" gradientUnits="userSpaceOnUse" x1="398.0588" y1="251.9714" x2="393.8688" y2="252.1514" gradientTransform="matrix(1 0 0 -1 -0.4 368.34)">
	<stop  offset="0" style="stop-color:#010101;stop-opacity:0"/>
	<stop  offset="0.95" style="stop-color:#010101"/>
</linearGradient>
<path class="st12" d="M395.9,117.3c0.2-0.1,0.4-0.3,0.4-0.6c0-0.2,0-0.3,0-0.5c-0.1-0.3-0.1-0.7,0-1c0.1-0.3,0.3-0.6,0.6-0.8
	c0.1,0,0.1,0,0.2,0c0.1,0,0.1,0,0.2,0l0.3,0.1c0.1,0,0.2,0.1,0.2,0.2c0,0.1,0.1,0.1,0.1,0.2c0.2,1,0,2.1-0.7,2.9
	c-0.1,0.1-0.1,0.2-0.2,0.2c-0.1,0.1-0.2,0.1-0.4,0.1c-0.3,0-0.6,0-0.9-0.1c-0.2-0.1-0.5-0.3-0.4-0.5S395.7,117.3,395.9,117.3z"/>
<path class="st6" d="M417.4,172.3c-0.1,2.2-0.2,4.5-1.4,6.3c-1.9,3.1-6,4.1-9.6,4.1c-1.6,0-3.3-0.1-4.9-0.5c-1.2-0.2-2.3-0.5-3.5-1
	c-2.7-1.1-4.8-3.1-6.2-5.7c-0.9-2.1-1.4-4.4-1.6-6.7c-0.4-3.5-0.8-7.1-1.2-10.6c-0.4-4-0.6-7.9-0.6-11.9c-0.1-3.2,0.3-6.3,1-9.4
	c0.8-3,2.6-5.7,5.1-7.6c2-1.4,5.9-3.1,8.4-2.8c2.8,0.4,4.7,4.2,5.8,6.5C414.9,145.2,417.8,158.7,417.4,172.3z"/>
<path class="st6" d="M396.1,134.1c-4.3,3.9-5.5,10-8.1,15.1c-0.3,0.8-0.8,1.5-1.4,2.1c-1.2,1.3-3.1,1.9-4.8,2.5
	c-3.5,1.2-6.8,2.8-10,4.8c-1.6,0.8-2.8,2-3.5,3.6c-0.8,2.3,0.7,4.9,2.8,6.1c2.2,1.1,4.7,1.4,7.1,1c4.6-0.7,9.1-2.1,13.3-4.1
	c1.5-0.6,2.8-1.4,4.1-2.3c1.1-1,2-2.1,2.8-3.2c1.4-1.8,2.7-3.8,3.8-5.7c2.2-3.9,3.6-8.3,4.1-12.8c0.3-2.1,0.1-4.2-0.6-6.1
	C403.7,130.2,399.3,131.1,396.1,134.1z"/>
<path class="st11" d="M399.9,239.2c0.3,1,0.5,2.3-0.1,3.1c-0.3,0.4-0.8,0.7-1.3,0.8c-0.7,0.1-1.4-0.1-2-0.6c-0.6-0.5-1.1-1-1.4-1.7
	c-0.6-1.1-0.9-2.3-1-3.5c0-0.4,0-0.8,0.2-1.1c0.3-0.4,0.7-0.7,1.2-0.9c0.9-0.3,2.6-0.9,3.4-0.1S399.7,238.1,399.9,239.2z"/>
<path class="st11" d="M418.6,236.3c0.6,0.9,1.1,2,0.7,3.1c-0.2,0.5-0.6,0.9-1,1.1c-0.7,0.3-1.4,0.3-2.1,0.1
	c-0.7-0.3-1.3-0.7-1.8-1.2c-0.9-0.9-1.5-1.9-1.9-3.1c-0.1-0.4-0.2-0.7-0.1-1.1c0.1-0.5,0.4-0.9,0.9-1.1c0.8-0.6,2.2-1.6,3.2-1
	S418,235.3,418.6,236.3z"/>
<path class="st6" d="M397.8,241.4c-0.6,0.2-1.2,0.3-1.8,0.2c-0.3-0.1-0.6-0.1-0.9,0c-0.3,0.1-0.5,0.2-0.7,0.4l-3.5,2.2
	c-0.4,0.2-0.8,0.6-1,1c-0.1,0.6,0.1,1.2,0.7,1.5c0.5,0.3,1.1,0.4,1.7,0.4c2.7,0.2,5.4,0.1,8.1-0.3c0.4,0,0.8-0.2,1.1-0.4
	c0.2-0.2,0.4-0.5,0.5-0.8c0.4-1.1,0.6-2.2,0.3-3.3c-0.2-1.1-0.9-2-1.8-2.5C399.4,239.6,398.6,241,397.8,241.4z"/>
<path class="st6" d="M416.6,239c-0.6,0.3-1.2,0.4-1.8,0.4c-0.3,0-0.6,0-0.9,0.1c-0.3,0.1-0.5,0.3-0.7,0.5l-3.2,2.6
	c-0.4,0.3-0.7,0.7-0.9,1.1c-0.1,0.6,0.3,1.2,0.9,1.4c0.6,0.2,1.2,0.3,1.8,0.2c2.7-0.1,5.4-0.5,8-1.3c0.4-0.1,0.7-0.3,1-0.6
	c0.2-0.2,0.3-0.5,0.4-0.8c0.3-1.1,0.3-2.3-0.1-3.3c-0.3-0.8-1.1-2.1-2.1-2.2C418,237,417.4,238.5,416.6,239z"/>
<linearGradient id="SVGID_5_" gradientUnits="userSpaceOnUse" x1="393.6806" y1="146.3476" x2="398.0106" y2="111.2776" gradientTransform="matrix(1 0 0 -1 -0.4 368.34)">
	<stop  offset="0" style="stop-color:#010101;stop-opacity:0"/>
	<stop  offset="0.95" style="stop-color:#010101"/>
</linearGradient>
<path class="st13" d="M397.8,241.4c-0.6,0.2-1.2,0.3-1.8,0.2c-0.3-0.1-0.6-0.1-0.9,0c-0.3,0.1-0.5,0.2-0.7,0.4l-3.5,2.2
	c-0.4,0.2-0.8,0.6-1,1c-0.1,0.6,0.1,1.2,0.7,1.5c0.5,0.3,1.1,0.4,1.7,0.4c2.7,0.2,5.4,0.1,8.1-0.3c0.4,0,0.8-0.2,1.1-0.4
	c0.2-0.2,0.4-0.5,0.5-0.8c0.4-1.1,0.6-2.2,0.3-3.3c-0.2-1.1-0.9-2-1.8-2.5C399.4,239.6,398.6,241,397.8,241.4z"/>
<linearGradient id="SVGID_6_" gradientUnits="userSpaceOnUse" x1="412.8503" y1="148.7863" x2="417.1803" y2="113.6763" gradientTransform="matrix(1 0 0 -1 -0.4 368.34)">
	<stop  offset="0" style="stop-color:#010101;stop-opacity:0"/>
	<stop  offset="0.95" style="stop-color:#010101"/>
</linearGradient>
<path class="st14" d="M416.6,239c-0.6,0.3-1.2,0.4-1.8,0.4c-0.3,0-0.6,0-0.9,0.1c-0.3,0.1-0.5,0.3-0.7,0.5l-3.2,2.6
	c-0.4,0.3-0.7,0.7-0.9,1.1c-0.1,0.6,0.3,1.2,0.9,1.4c0.6,0.2,1.2,0.3,1.8,0.2c2.7-0.1,5.4-0.5,8-1.3c0.4-0.1,0.7-0.3,1-0.6
	c0.2-0.2,0.3-0.5,0.4-0.8c0.3-1.1,0.3-2.3-0.1-3.3c-0.3-0.8-1.1-2.1-2.1-2.2C418,237,417.4,238.5,416.6,239z"/>
<path class="st15" d="M169.6,106.3h82c1.8,0,3.2,1.4,3.2,3.2v0.1c0,1.8-1.4,3.2-3.2,3.2h-82c-1.8,0-3.2-1.4-3.2-3.2v-0.1
	C166.4,107.8,167.8,106.3,169.6,106.3z"/>
<path class="st15" d="M198.1,125.2h82c1.8,0,3.2,1.4,3.2,3.2v0.1c0,1.8-1.4,3.2-3.2,3.2h-82c-1.8,0-3.2-1.4-3.2-3.2v-0.1
	C194.9,126.6,196.4,125.2,198.1,125.2z"/>
<path class="st15" d="M173.6,143.8h82c1.8,0,3.2,1.4,3.2,3.2v0.1c0,1.8-1.4,3.2-3.2,3.2h-82c-1.8,0-3.2-1.4-3.2-3.2V147
	C170.4,145.2,171.8,143.8,173.6,143.8z"/>
<path class="st6" d="M344.1,112.4c1-1,2-1.8,3-2.7c0.2-0.2,0.5-0.5,0.7-0.5c0.5,0,0.9,0.1,1.3,0.4c0.3,0.4,0.3,1-0.1,1.3
	c0,0-0.1,0.1-0.1,0.1c-1,0.9-1.9,1.8-2.9,2.7c0.3,0.3,0.5,0.7,0.8,1c0.6,1,1.2,2,1.6,3.1c0.1,0.8,0.9,1.3,1.6,1.2
	c1.4,0,2.8,0.1,4.2,0.2c0.9,0,1.3,0.5,1.2,1.2s-0.5,1.2-1.3,1.1c-1.7-0.1-3.5-0.2-5.3-0.2c-0.3,2.2-1.3,4.2-2.9,5.8L334.6,114
	l-2,1.8l11.6,13.2c-1.4,1.3-3.2,2-5.1,2.1c-0.9,0-1.1,0.3-1.1,1.2c0.1,1.3,0,2.6,0,3.9c0,1.1-0.5,1.8-1.4,1.8s-1.2-0.6-1.2-1.8
	c0-1.5,0-3,0-4.5c0-0.5-0.2-0.9-0.7-1.1c-1.3-0.8-2.5-1.7-4-2.7l-1.6,1.5l-1,0.9c-0.8,0.8-1.5,0.8-2,0.3s-0.4-1.2,0.5-2l2.9-2.6
	c-1.3-1.4-2.5-2.8-3.7-4.2c-0.2-0.2-0.5-0.3-0.8-0.2c-1.3-0.1-2.5-0.2-3.8-0.2c-0.9,0-1.4-0.5-1.4-1.2s0.4-1.1,1.4-1.1
	c1.3,0,2.6,0.2,3.9,0.2c0.5,0,0.9-0.2,1.3-0.5c3.7-3.4,7.5-6.8,11.2-10.2c0.3-0.3,0.5-0.7,0.5-1.2c0.1-1.3,0.1-2.6,0.2-3.9
	c0-0.2,0-0.6,0.2-0.7c0.4-0.3,0.9-0.7,1.2-0.6c0.4,0.2,0.8,0.5,0.9,1c0,1.3,0,2.6-0.1,3.9c-0.1,0.7,0.1,1.5,0.7,2
	C342.1,110,343.1,111.2,344.1,112.4z"/>
<path class="st6" d="M334.6,107.3l-9.2,8.4c-1.3-1.4-1.9-3.3-1.5-5.2c0.4-3.4,3.5-5.8,6.9-5.3C332.2,105.5,333.6,106.2,334.6,107.3z
	"/>
<path class="st6" d="M344.2,112.4c1-1,2-1.8,3-2.7c0.2-0.2,0.5-0.5,0.7-0.5c0.5,0,0.9,0.1,1.3,0.4c0.3,0.4,0.3,1-0.1,1.3
	c0,0-0.1,0.1-0.1,0.1c-1,0.9-1.9,1.8-2.9,2.7c0.3,0.3,0.5,0.7,0.8,1c0.6,1,1.2,2,1.6,3.1c0.1,0.8,0.9,1.3,1.6,1.2
	c1.4,0,2.8,0.1,4.2,0.2c0.9,0,1.3,0.5,1.2,1.2s-0.5,1.2-1.3,1.1c-1.7-0.1-3.5-0.2-5.3-0.2c-0.3,2.2-1.3,4.2-2.9,5.8L334.6,114
	l-2,1.8l11.6,13.2c-1.4,1.3-3.2,2-5.1,2.1c-0.9,0-1.1,0.3-1.1,1.2c0.1,1.3,0,2.6,0,3.9c0,1.1-0.5,1.8-1.4,1.8s-1.2-0.6-1.2-1.8
	c0-1.5,0-3,0-4.5c0-0.5-0.2-0.9-0.7-1.1c-1.3-0.8-2.5-1.7-4-2.7l-1.6,1.5l-1,0.9c-0.8,0.8-1.5,0.8-2,0.3s-0.4-1.2,0.5-2l2.9-2.6
	c-1.3-1.4-2.5-2.8-3.7-4.2c-0.2-0.2-0.5-0.2-0.8-0.2c-1.3-0.1-2.5-0.2-3.8-0.2c-0.9-0.1-1.4-0.5-1.4-1.2s0.4-1.1,1.4-1.1
	c1.3,0,2.6,0.2,3.9,0.2c0.5,0,0.9-0.2,1.3-0.5c3.7-3.4,7.5-6.8,11.1-10.2c0.3-0.3,0.5-0.7,0.5-1.2c0.1-1.3,0.1-2.6,0.2-3.9
	c0-0.2,0-0.6,0.2-0.7c0.4-0.3,0.9-0.7,1.2-0.6c0.4,0.2,0.8,0.5,0.9,1c0,1.3,0,2.6-0.1,3.9c-0.1,0.7,0.1,1.5,0.7,2
	C342.1,110,343.1,111.2,344.2,112.4z"/>
<path class="st6" d="M334.6,107.3l-9.2,8.4c-1.3-1.4-1.9-3.3-1.5-5.2c0.4-3.4,3.5-5.8,6.9-5.3C332.2,105.4,333.6,106.2,334.6,107.3z
	"/>
</svg>
