<?xml version="1.0" encoding="utf-8"?>
<!-- Generator: Adobe Illustrator 23.0.1, SVG Export Plug-In . SVG Version: 6.00 Build 0)  -->
<svg version="1.1" id="Layer_1" xmlns="http://www.w3.org/2000/svg" xmlns:xlink="http://www.w3.org/1999/xlink" x="0px" y="0px"
	 viewBox="0 0 823.7 566.7" style="enable-background:new 0 0 823.7 566.7;" xml:space="preserve">
<style type="text/css">
	.st0{fill:#E6E6E6;enable-background:new    ;}
	.st1{fill:#3F3D56;}
	.st2{fill:#FFFFFF;}
	.st3{display:none;fill:#4F038E;}
	.st4{display:none;fill:url(#SVGID_1_);}
	.st5{fill:url(#SVGID_2_);}
	.st6{fill:url(#SVGID_3_);}
	.st7{fill:url(#SVGID_4_);}
	.st8{fill:url(#SVGID_5_);}
	.st9{fill:url(#SVGID_6_);}
	.st10{fill:#4F038E;}
	.st11{fill:url(#SVGID_7_);}
	.st12{fill:#333333;}
	.st13{fill:#FCFDFF;}
	.st14{fill:url(#SVGID_8_);}
	.st15{fill:url(#SVGID_9_);}
	.st16{fill:url(#SVGID_10_);}
	.st17{opacity:0.15;fill:#020202;enable-background:new    ;}
</style>
<title>4. Building Website</title>
<path class="st0" d="M735.1,114.1c7.9,44.8-37.1,89-23.2,132.3c8,25,32,40.6,52.7,56.7c32.9,25.5,63.2,62.5,58.7,103.9
	c-4.9,44.6-47.4,76.1-89.6,91.4C575.3,555.3,33,655.5,0.9,402.7c-6.1-48.3,21.6-96.2,52.8-133.6c24.8-29.8,162.7-163.6,213.2-188.6
	C491.4-30.8,712-17.8,735.1,114.1z"/>
<polygon class="st1" points="475.9,524.4 266.2,524.4 302.8,450.2 448.2,450.2 "/>
<rect x="249.1" y="519" class="st1" width="246.3" height="18"/>
<path class="st1" d="M680.7,21.6v424c0.1,10.8-8.6,19.6-19.4,19.7c0,0,0,0,0,0H94.2c-10.8-0.1-19.5-8.9-19.4-19.7v-424
	C74.7,10.7,83.4,1.9,94.2,1.7h567.1C672.2,1.9,680.9,10.8,680.7,21.6z"/>
<rect x="97.1" y="26.7" class="st2" width="564" height="334"/>
<rect x="297.5" y="387.8" class="st3" width="169.3" height="114"/>
<rect x="297.5" y="387.8" class="st3" width="169.3" height="114"/>
<linearGradient id="SVGID_1_" gradientUnits="userSpaceOnUse" x1="382.11" y1="-65.62" x2="382.11" y2="87.86" gradientTransform="matrix(1 0 0 1 -1.000000e-02 476)">
	<stop  offset="0" style="stop-color:#000000;stop-opacity:0.4"/>
	<stop  offset="1" style="stop-color:#FFFFFF;stop-opacity:0"/>
</linearGradient>
<rect x="297.5" y="387.8" class="st4" width="169.3" height="114"/>
<path class="st3" d="M691,65.2v298.7c0,36-29.2,65.2-65.2,65.2c0,0,0,0,0,0H129.7c-36,0-65.2-29.2-65.2-65.2V65.2
	c0-36,29.2-65.2,65.2-65.2c0,0,0,0,0,0h496C661.7,0,690.9,29.1,691,65.2C691,65.1,691,65.1,691,65.2L691,65.2z"/>
<linearGradient id="SVGID_2_" gradientUnits="userSpaceOnUse" x1="349.3736" y1="155.9401" x2="367.4636" y2="-630.9999" gradientTransform="matrix(1 0 0 1 -1.000000e-02 476)">
	<stop  offset="2.000000e-02" style="stop-color:#FFFFFF;stop-opacity:0"/>
	<stop  offset="1" style="stop-color:#FFFFFF"/>
</linearGradient>
<rect x="140.3" y="59" class="st5" width="442.5" height="87.3"/>
<linearGradient id="SVGID_3_" gradientUnits="userSpaceOnUse" x1="229.9586" y1="240.09" x2="248.0486" y2="-546.85" gradientTransform="matrix(1 0 0 1 -1.000000e-02 476)">
	<stop  offset="2.000000e-02" style="stop-color:#FFFFFF;stop-opacity:0"/>
	<stop  offset="1" style="stop-color:#FFFFFF"/>
</linearGradient>
<rect x="140.3" y="157.5" class="st6" width="201" height="175.8"/>
<linearGradient id="SVGID_4_" gradientUnits="userSpaceOnUse" x1="455.6081" y1="222.25" x2="473.6981" y2="-564.6901" gradientTransform="matrix(1 0 0 1 -1.000000e-02 476)">
	<stop  offset="2.000000e-02" style="stop-color:#FFFFFF;stop-opacity:0"/>
	<stop  offset="1" style="stop-color:#FFFFFF"/>
</linearGradient>
<rect x="355.5" y="157.5" class="st7" width="223.7" height="58.7"/>
<linearGradient id="SVGID_5_" gradientUnits="userSpaceOnUse" x1="455.2254" y1="308.7399" x2="473.3154" y2="-478.2001" gradientTransform="matrix(1 0 0 1 -1.000000e-02 476)">
	<stop  offset="2.000000e-02" style="stop-color:#FFFFFF;stop-opacity:0"/>
	<stop  offset="1" style="stop-color:#FFFFFF"/>
</linearGradient>
<rect x="355.5" y="227.3" class="st8" width="223.7" height="58.7"/>
<linearGradient id="SVGID_6_" gradientUnits="userSpaceOnUse" x1="461.0983" y1="111.79" x2="479.1883" y2="-675.14" gradientTransform="matrix(1 0 0 1 -1.000000e-02 476)">
	<stop  offset="2.000000e-02" style="stop-color:#FFFFFF;stop-opacity:0"/>
	<stop  offset="1" style="stop-color:#FFFFFF"/>
</linearGradient>
<rect x="355.5" y="297.1" class="st9" width="223.7" height="36.1"/>
<g id="V3">
	<g id="v3.v1">
		<g id="build-pixels-copy">
			<path class="st10" d="M483,543.4h9.5l-29.4-370.2l-8.1,2.2l1.8,24.2l-29,1.8l-2.2-28.2l-8.1,2.2l27.9,368.1h9.5l-3.3-42l28-1.7
				l-0.4-6.6l-28.1,1.7l-2.4-30l28.7-1.8l-0.4-6.6l-28.9,1.8l-2.4-30.1l28.2-1.8L483,543.4z M428.4,207.9l29-1.9l2.3,30.1l-28.9,1.9
				L428.4,207.9z M431.3,244.6l28.9-1.9l2.3,30.2l-28.7,1.8L431.3,244.6z M434.2,281.3l28.7-1.8l2.4,32.1l-28.6,1.7L434.2,281.3z
				 M437.3,319.9l28.6-1.7l2.1,28l-28.5,1.8L437.3,319.9z M440,354.6l28.5-1.8l2.3,30.1l-28.3,1.8L440,354.6z M445.4,421.4
				l-2.4-30.1l28.3-1.8l2.3,30.1L445.4,421.4z"/>
			<path class="st10" d="M239.8,196.6v-23.5h-5.9v23.5h-28.7v7.3h28.6v325.5h5.9V241.8l34.9-37.9h26.7v-7.3L239.8,196.6z
				 M239.8,231.5v-27.6h26.6L239.8,231.5z"/>
			<path class="st10" d="M530.7,196.6v-23.5h-5.9v23.5h-56.6v7.3h24.6l32,34.7v290.8h5.9V203.9h33.7v-7.3L530.7,196.6z M524.8,228.5
				l-23.7-24.6h23.6L524.8,228.5z"/>
			<path class="st10" d="M469.1,271.6l-0.7,6.1h-14.1c0,0-1.1-3.5,1.4-4.4c1.4-0.5,2.9-0.9,4.3-1.1L469.1,271.6z"/>
			
				<linearGradient id="SVGID_7_" gradientUnits="userSpaceOnUse" x1="449.4294" y1="-305.2304" x2="467.14" y2="-305.2304" gradientTransform="matrix(1 0 0 1 -0.27 459.93)">
				<stop  offset="0" style="stop-color:#ECC4D7"/>
				<stop  offset="0.42" style="stop-color:#EFD4D1"/>
				<stop  offset="1" style="stop-color:#F2EAC9"/>
			</linearGradient>
			<path class="st11" d="M449.5,145.2c-0.6,5.5-0.3,11,1,16.3c1.6,2.1,4.2,3.1,6.8,2.7v4.1h6.7l2.9-20.3
				C466.9,148,456.3,134.5,449.5,145.2z"/>
			<path class="st12" d="M454.2,147.3c1.1,2.1,1.7,4.4,2,6.8c0,0,1.4-2.7,2-1.4s-1.4,4.1-1.4,4.1l2,3.4h6.9c0,0,3.4-14.8,1.5-16.9
				s-3.2-2-3.2-2s0-2-4.1-2s-9.5,0-11.5,3.4s-2.7,2-2.7,2s1.1,2.5,2.9,1.9C449.1,146.4,453.5,145.2,454.2,147.3z"/>
			<path class="st10" d="M457.3,168.3h11.4c0,0,4.8,1,5.5,12.5c0.4,7.9,0.4,15.8,0,23.6v18.9l-5.5-1.8l-20.3,4.5l-2-27.7
				c-4.3-0.5-8.1-2.9-10.5-6.5c-3-4.5-3.7-10.2-1.8-15.2l14.1,7.4l0.8-4c0.8-4.3,3.2-8.2,6.8-10.8L457.3,168.3z"/>
			<polygon class="st13" points="436,172.9 432.6,162.1 446.1,160.1 450.6,174.8 448.3,184.1 440.2,179.9 			"/>
			
				<linearGradient id="SVGID_8_" gradientUnits="userSpaceOnUse" x1="433.56" y1="-283.5538" x2="441.9" y2="-283.5538" gradientTransform="matrix(1 0 0 1 -0.27 459.93)">
				<stop  offset="0" style="stop-color:#ECC4D7"/>
				<stop  offset="0.42" style="stop-color:#EFD4D1"/>
				<stop  offset="1" style="stop-color:#F2EAC9"/>
			</linearGradient>
			<path class="st14" d="M433.3,179c0.2-2.3,1.2-4.4,2.7-6.1l0.7,0.7h4.3l0.7,2.6l-1.6,2.2C438.2,180.1,435.4,180.3,433.3,179z"/>
			<polygon class="st12" points="448.1,220.9 446.1,254.6 448.8,272.2 456.9,272.2 458.3,243.2 463,231 459.6,272.2 469.1,272.9 
				473.8,218.2 468.5,216.2 			"/>
			<path class="st10" d="M456.5,272.2v6.8l-14.3-5.1c0,0,0-3.7,2.8-3.7c1.5,0,3,0.1,4.5,0.4L456.5,272.2z"/>
			<path class="st10" d="M270,539.8l0.7,6.1h14.1c0,0,1.1-3.5-1.4-4.4c-1.4-0.5-2.9-0.9-4.3-1.1L270,539.8z"/>
			
				<linearGradient id="SVGID_9_" gradientUnits="userSpaceOnUse" x1="264.4" y1="-35.5576" x2="284.66" y2="-35.5576" gradientTransform="matrix(1 0 0 1 -0.27 459.93)">
				<stop  offset="0" style="stop-color:#ECC4D7"/>
				<stop  offset="0.42" style="stop-color:#EFD4D1"/>
				<stop  offset="1" style="stop-color:#F2EAC9"/>
			</linearGradient>
			<path class="st15" d="M279.8,412.2c2.5,4.9,4,10.2,4.6,15.6c-0.8,3.9-5.6,4.7-5.6,4.7l1.3,3.9l-6.8,2.4l-9.2-18.3
				C264.1,420.5,269.9,404.1,279.8,412.2z"/>
			<path class="st12" d="M275.9,415.7c-0.4,2.2-0.4,4.5,0,6.8c0,0-2.2-2.1-2.4-0.6s2.6,3.4,2.6,3.4l-0.8,3.9l-6.2,2.1
				c0,0-8-13-6.8-15.5s1.8-2.8,1.8-2.8s-0.7-1.9,3.2-3.2s9-3,12-0.5s3.2,1,3.2,1s0,2.7-2.2,2.8C280.6,413.2,275.9,413.5,275.9,415.7
				z"/>
			<path class="st10" d="M282.2,436.5h-11.4c0,0-4.8,1-5.5,12.5c-0.4,7.9-0.4,15.8,0,23.6v18.9l5.5-1.8l20.3,4.5l2-27.7
				c4.3-0.7,8-3.2,10.2-6.9c3-4.5,3.6-10.2,1.8-15.2l-14.2,7.4l-0.8-4c-0.8-4.3-3.2-8.2-6.8-10.8L282.2,436.5z"/>
			<polygon class="st13" points="303.2,441.1 306.5,430.4 293,428.3 288.5,443.1 291,452 299.1,447.9 			"/>
			
				<linearGradient id="SVGID_10_" gradientUnits="userSpaceOnUse" x1="297.8" y1="-15.2596" x2="306.13" y2="-15.2596" gradientTransform="matrix(1 0 0 1 -0.27 459.93)">
				<stop  offset="0" style="stop-color:#ECC4D7"/>
				<stop  offset="0.42" style="stop-color:#EFD4D1"/>
				<stop  offset="1" style="stop-color:#F2EAC9"/>
			</linearGradient>
			<path class="st16" d="M305.9,447.3c-0.2-2.3-1.2-4.4-2.7-6.1l-0.7,0.7h-4.3l-0.7,2.6l1.6,2.2C301,448.4,303.7,448.6,305.9,447.3z
				"/>
			<polygon class="st12" points="291,489.2 293,522.9 290.4,540.5 282.2,540.5 280.9,511.5 276.1,499.3 279.5,540.5 270,541.2 
				265.3,486.5 270.7,484.4 			"/>
			<path class="st10" d="M282.6,540.5v4.8l14.8-0.7c0,0-0.7-4.7-3.4-4.7c-1.5,0-2.9-0.3-4.2-1L282.6,540.5z"/>
			<path class="st2" d="M522.2,145.9h-34.6c-9.8,0-17.8-8-17.8-17.8v-7.6c0-9.8,8-17.8,17.8-17.8h34.6c9.8,0,17.8,8,17.8,17.8
				c0,0,0,0,0,0l0,0v7.6C540.1,137.9,532.1,145.9,522.2,145.9L522.2,145.9z"/>
			<path class="st2" d="M473.8,155.3c0,0,14.2,0.7,17.5-9.5h10.5C501.8,145.8,494.8,158.7,473.8,155.3z"/>
			<path class="st17" d="M481.8,109.4h47.6c0.7,0,1.2,0.5,1.2,1.2v1c0,0.7-0.5,1.2-1.2,1.2h-47.6c-0.7,0-1.2-0.5-1.2-1.2l0,0l0,0v-1
				C480.6,109.9,481.1,109.4,481.8,109.4L481.8,109.4z"/>
			<path class="st17" d="M481.8,117.5h47.6c0.7,0,1.2,0.5,1.2,1.2v1c0,0.7-0.5,1.2-1.2,1.2h-47.6c-0.7,0-1.2-0.5-1.2-1.2l0,0l0,0v-1
				C480.6,118.1,481.1,117.5,481.8,117.5L481.8,117.5z"/>
			<path class="st17" d="M481.8,125.6h47.6c0.7,0,1.2,0.5,1.2,1.2v1c0,0.7-0.5,1.2-1.2,1.2h-47.6c-0.7,0-1.2-0.5-1.2-1.2l0,0l0,0v-1
				C480.6,126.1,481.1,125.6,481.8,125.6L481.8,125.6z"/>
			<path class="st17" d="M481.8,133.7h25.9c0.7,0,1.2,0.6,1.2,1.2v1c0,0.7-0.5,1.2-1.2,1.2h-25.9c-0.7,0-1.2-0.5-1.2-1.2l0,0l0,0v-1
				C480.6,134.3,481.1,133.7,481.8,133.7L481.8,133.7z"/>
			<path class="st2" d="M206.6,416.1h34.6c9.7,0,17.6-7.8,17.7-17.5v-7.9c0-9.8-8-17.8-17.8-17.8h-34.6c-9.8,0-17.8,8-17.8,17.8l0,0
				v7.9C189,408.4,196.9,416.1,206.6,416.1z"/>
			<path class="st2" d="M254.9,425.8c0,0-14.2,0.7-17.6-9.5H227C227,416.3,233.7,429,254.9,425.8z"/>
			<path class="st17" d="M246.9,383h-47.6c-0.7,0-1.2-0.5-1.2-1.2l0,0l0,0v-1c0-0.7,0.5-1.2,1.2-1.2l0,0h47.6c0.7,0,1.2,0.5,1.2,1.2
				l0,0l0,0v1C248.2,382.5,247.6,383,246.9,383L246.9,383z"/>
			<path class="st17" d="M246.9,391.2h-47.6c-0.7,0-1.2-0.5-1.2-1.2l0,0l0,0v-1c0-0.7,0.6-1.2,1.2-1.2h47.6c0.7,0,1.2,0.5,1.2,1.2v1
				C248.2,390.7,247.6,391.2,246.9,391.2L246.9,391.2L246.9,391.2z"/>
			<path class="st17" d="M246.9,399.3h-47.6c-0.7,0-1.2-0.5-1.2-1.2v-1c0-0.7,0.5-1.2,1.2-1.2l0,0h47.6c0.7,0,1.2,0.5,1.2,1.2l0,0
				l0,0v1C248.1,398.7,247.6,399.3,246.9,399.3z"/>
			<path class="st17" d="M246.9,407.4H221c-0.7,0-1.2-0.5-1.2-1.2l0,0l0,0v-0.9c0-0.7,0.5-1.2,1.2-1.2c0,0,0,0,0,0h25.9
				c0.7,0,1.2,0.5,1.2,1.2l0,0l0,0v0.9C248.2,406.8,247.6,407.4,246.9,407.4L246.9,407.4L246.9,407.4z"/>
		</g>
	</g>
</g>
</svg>
