<svg xmlns="http://www.w3.org/2000/svg" viewBox="0 0 297.45 419.88"><defs><style>.cls-1{fill:#131313;}.cls-2{fill:#1572b6;}.cls-3{fill:#33a9dc;}.cls-4{fill:#fff;}.cls-5{fill:#ebebeb;}</style></defs><title>css_logo</title><g id="Layer_2" data-name="Layer 2"><g id="Layer_1-2" data-name="Layer 1"><path class="cls-1" d="M233.09,15.55H208.4l25.68,27.86V56.67H181.2V41.14h25.67L181.2,13.28V0h51.89V15.55Zm-62.38,0H146L171.7,43.41V56.67H118.82V41.14h25.67L118.82,13.28V0h51.89V15.55ZM109,16.18H82.31V40.49H109V56.67H63.37V0H109Z"/><polygon class="cls-2" points="27.07 386.15 0 82.53 297.45 82.53 270.35 386.11 148.54 419.88 27.07 386.15"/><polygon class="cls-3" points="148.73 394.06 247.15 366.78 270.31 107.36 148.73 107.36 148.73 394.06"/><polygon class="cls-4" points="148.73 217.36 198 217.36 201.4 179.23 148.73 179.23 148.73 141.99 148.85 141.99 242.1 141.99 241.21 151.98 232.06 254.6 148.73 254.6 148.73 217.36"/><polygon class="cls-5" points="148.95 314.07 148.79 314.12 107.31 302.92 104.66 273.22 84.51 273.22 67.28 273.22 72.5 331.69 148.78 352.86 148.95 352.81 148.95 314.07"/><polygon class="cls-4" points="194.84 253.02 190.35 302.89 148.82 314.1 148.82 352.84 225.16 331.69 225.72 325.39 232.2 253.02 194.84 253.02"/><polygon class="cls-5" points="148.85 141.99 148.85 165.12 148.85 179.14 148.85 179.23 59.03 179.23 59.03 179.23 58.91 179.23 58.16 170.86 56.46 151.98 55.57 141.99 148.85 141.99"/><polygon class="cls-5" points="148.73 217.37 148.73 240.49 148.73 254.51 148.73 254.6 107.9 254.6 107.9 254.6 107.78 254.6 107.03 246.23 105.33 227.36 104.44 217.37 148.73 217.37"/></g></g></svg>