<svg id="Layer_1" xmlns="http://www.w3.org/2000/svg" viewBox="0 0 277 95" width="277" height="95"><style>.st0{fill:#ed1c24}.st1{fill:#333}</style><path class="st0" d="M39.3 36.9c5.3.1 10.6-2.4 13.9-6.6 4.2-5 5-12.4 2.5-18.3C52.9 5.3 45.6.9 38.4 1.4c-8.2.4-16.5-.7-24.6.7C5.5 4.4-.1 13 1.2 21.4c.9 8.1 8 15 16.2 15.4 7.3.2 14.6.1 21.9.1zM8 19.4c-.2-4.4 2.6-8.7 6.6-10.5 2.7-1.3 5.8-.9 8.7-1 5.6.1 11.3-.2 16.9.1 6 .4 10.6 6.5 9.8 12.4-.6 5.3-5.2 9.9-10.6 10-6.8.1-13.5 0-20.3 0-5.8.1-11.1-5.2-11.1-11zm59.5 17.5v-29c7.6.1 15.2-.1 22.7 0 2.8 0 5.2 2.7 5.1 5.4.2 2.8-2.3 5.5-5.2 5.5-6.6.1-13.3 0-19.9.1 6.8 6 13.7 11.9 20.5 18h10.4c-4.5-3.8-9-7.6-13.6-11.4 5.4.5 11.5-1.8 13.7-7.1 3.5-7.1-1.8-16.8-9.9-17-10.3-.1-20.6 0-30.9 0v35.5h7.1zm43.1 0c5.8-9.2 11.6-18.4 17.4-27.7 3.1 4.9 6.2 9.9 9.3 14.9h-18.1c1.4 2.2 2.8 4.3 4.1 6.5h18.4c1.2 2.1 2.5 4.2 3.7 6.3h8.4c-6.7-10.6-13.6-21.2-20.3-31.8-1.1-1.6-2.2-3.6-4.3-3.9-2.5-.8-5 .9-6.2 3.1-6.9 10.9-13.9 21.8-20.9 32.7 2.9-.1 5.7-.1 8.5-.1zm55.8-.1c7.5.2 15 0 22.5.1 1.4-2.2 2.8-4.3 4.1-6.5h-24.8c-5.8.2-11.3-5-11.2-10.9-.4-6.1 5.2-11.8 11.3-11.5h19.9c1.4-2.2 2.8-4.3 4.2-6.5-8.8.1-17.5-.1-26.2 0-9 .5-16.7 9-16.2 18-.1 8.8 7.5 16.9 16.4 17.3zm35.9.1h28c1.4-2.2 2.8-4.3 4.2-6.5h-31.7v-29h-7v29c.1 1.9-.1 3.9.9 5.5 1.7 1 3.7 1 5.6 1zm46.4-.1c7.6.2 15.2 0 22.8 0 1.4-2.1 2.7-4.3 4.1-6.5-8.4-.1-16.9.1-25.3 0-4.8 0-8.6-3.7-10.4-7.9 9.7-.1 19.4 0 29.1 0 1.4-2.2 2.7-4.3 4.1-6.5-11.1-.1-22.2.1-33.3-.1 1.8-3.9 5.1-7.6 9.6-7.9 7.2-.3 14.3.1 21.5-.2 1.4-2.1 2.6-4.3 4-6.4-8.6 0-17.2-.1-25.7 0-8.4.2-15.9 7.4-16.6 15.8-1.2 9.6 6.5 19.2 16.1 19.7z"/><path class="st1" d="M10.3 52.4v3H269v-3H10.3z"/><path d="M68.8 82.7c4.6-1.7 6-8 2.4-11.3-3.8-2.9-8.9-1.9-13.2-1.5v24.5h3.3V83.8c2.3.2 5.3-.4 6.8 1.9 1.4 2.6 1.7 5.7 2.6 8.6.9 0 2.5.2 3.4.2-1.6-4-1.2-9.3-5.3-11.8zm-7.5-1.2V72c2.5-.1 5.3-.5 7.4 1.2 2 1.9 1.8 5.8-.6 7.3-2 1.3-4.5.8-6.8 1zm19 1.4h9.5c0-.6 0-1.9-.1-2.5h-9.5v-8.3h10v-2.7H76.9v25h13.7c0-.7.1-2.1.1-2.8H80.2c.1-2.9.1-5.8.1-8.7zM99 78.6c-2.1-1.4-2-5.2.5-6.1 2.3-1.5 4.9-.1 7.3.4.2-.6.6-2 .8-2.6-3.1-.7-6.4-1.4-9.4 0-3.4 1.3-5 5.9-2.8 8.9 2.1 3.2 6.5 3.3 9.1 5.9 1.7 1.9 1 5.1-1.3 6.1-2.8 1.6-5.9 0-8.8-.7-.1.7-.4 2-.5 2.7 3 .7 6.2 1.7 9.3.7 4.1-.7 6.7-5.7 4.8-9.4-1.8-3.4-6-3.9-9-5.9zm25.1-8c-3.7-1.9-8-1.2-12-.8v24.6h3.3v-9.6c3.4.1 7.3.1 10-2.4 2.8-3.2 2.7-9.5-1.3-11.8zM121 81.9c-1.8.6-3.7.5-5.6.6-.1-3.5-.1-7.1-.1-10.6 2.4.1 5.1-.4 7.1 1.2 2.9 2.3 2 7.5-1.4 8.8zM136.7 70c-7.6 2.7-9.3 13.1-5.5 19.5 3.5 6.1 13.1 6.5 17.5 1.2 3.5-4.4 3.7-10.9 1.3-15.8-2.3-4.8-8.5-6.6-13.3-4.9zm8.4 20.3c-3.2 2.9-8.7 1.9-10.8-1.8-2.8-4.8-2.4-12.2 2.4-15.6 3.2-2.1 7.9-1 9.8 2.4 2.8 4.5 2.5 11.1-1.4 15zm26.6.1c-3.4-7.3-7.9-14-11.9-21-1.2 0-2.3 0-3.5-.1v25h3c-.1-7.1.2-14.2-.3-21.2 3.8 7.3 8 14.2 12.2 21.2h3.2v-25h-3c-.1 7.1-.3 14.1.3 21.1zm12.4-11.8c-2.2-1.3-2.1-5.2.4-6.1 2.3-1.5 5-.1 7.3.4.2-.7.6-2 .8-2.6-3.1-.7-6.4-1.4-9.5 0-3.4 1.3-5 5.9-2.8 8.9 2.1 3.2 6.6 3.3 9.2 6 1.6 1.9.9 5.1-1.4 6.1-2.8 1.5-5.9 0-8.8-.8-.1.7-.4 2-.5 2.7 3 .8 6.2 1.7 9.3.7 4.1-.7 6.7-5.7 4.7-9.4-1.6-3.4-5.8-3.9-8.7-5.9zm21 3c-1.8-4.1-3.9-8.1-5.9-12.2h-3.6c2.6 4.8 5.4 9.4 7.6 14.4.3 3.5 0 7.1.1 10.6h3.3c.1-3.6-.2-7.2.1-10.7 2.4-4.9 5.4-9.5 7.9-14.3H211c-1.9 4-4 8.1-5.9 12.2zm16.7-2.6c-2.7-1-3.1-5.4-.3-6.5 2.3-1.5 5-.1 7.3.4.2-.7.6-2 .8-2.6-3.1-.7-6.5-1.4-9.5 0-3.4 1.3-4.9 5.9-2.8 8.9 2.1 3.2 6.6 3.3 9.2 6 1.6 1.9.9 5-1.4 6.1-2.9 1.6-6-.1-8.9-.8-1.5 3.9 3.6 3.5 6 3.9 4.4.3 9.2-3.2 8.3-8-.6-4.5-5.4-5.6-8.7-7.4z"/></svg>