<svg xmlns="http://www.w3.org/2000/svg" viewBox="0 0 297.45 419.85"><defs><style>.cls-1{fill:#e44f26;}.cls-2{fill:#f1662a;}.cls-3{fill:#ebebeb;}.cls-4{fill:#010101;}.cls-5{fill:#fff;}</style></defs><title>html_logo</title><g id="Layer_2" data-name="Layer 2"><g id="Layer_1-2" data-name="Layer 1"><polygon class="cls-1" points="27.07 386.13 0 82.51 297.45 82.51 270.35 386.08 148.54 419.85 27.07 386.13"/><polygon class="cls-2" points="148.72 394.04 247.15 366.75 270.31 107.34 148.72 107.34 148.72 394.04"/><polygon class="cls-3" points="148.72 219.94 99.45 219.94 96.05 181.81 148.72 181.81 148.72 144.57 148.6 144.57 55.35 144.57 56.24 154.56 65.39 257.18 148.72 257.18 148.72 219.94"/><polygon class="cls-3" points="148.72 316.65 148.56 316.7 107.09 305.5 104.44 275.8 84.29 275.8 67.06 275.8 72.28 334.27 148.55 355.44 148.72 355.4 148.72 316.65"/><path class="cls-4" d="M27.67,0H46.6V18.7H63.91V0H82.84V56.62H63.91v-19H46.6v19H27.67V0Z"/><path class="cls-4" d="M107.72,18.78H91.06V0h52.25V18.78H126.64V56.62H107.72V18.78Z"/><path class="cls-4" d="M151.6,0h19.74l12.13,19.89L195.6,0h19.74V56.62H196.49V28.56l-13,20.13h-.32l-13-20.13V56.62H151.6V0Z"/><path class="cls-4" d="M224.76,0h18.93V37.9H270.3V56.62H224.76V0Z"/><polygon class="cls-5" points="148.6 219.94 148.6 257.18 194.45 257.18 190.13 305.48 148.6 316.69 148.6 355.43 224.94 334.27 225.5 327.98 234.25 229.94 235.15 219.94 225.12 219.94 148.6 219.94"/><polygon class="cls-5" points="148.6 144.57 148.6 167.7 148.6 181.72 148.6 181.81 238.42 181.81 238.42 181.81 238.54 181.81 239.29 173.44 240.99 154.56 241.88 144.57 148.6 144.57"/></g></g></svg>