<?xml version="1.0" encoding="utf-8"?>
<!-- Generator: Adobe Illustrator 23.0.1, SVG Export Plug-In . SVG Version: 6.00 Build 0)  -->
<svg version="1.1" id="Layer_1" xmlns="http://www.w3.org/2000/svg" xmlns:xlink="http://www.w3.org/1999/xlink" x="0px" y="0px"
	 viewBox="0 0 561 577.6" style="enable-background:new 0 0 561 577.6;" xml:space="preserve">
<style type="text/css">
	.st0{fill:#E6E6E6;enable-background:new    ;}
	.st1{fill:#FFB8B8;}
	.st2{fill:#3F3D56;}
	.st3{fill:#4F038E;}
	.st4{fill:#575A89;}
	.st5{fill:#FFFFFF;}
	.st6{fill:url(#SVGID_1_);}
	.st7{fill:#E6E6E6;}
	.st8{fill:none;stroke:#FFFFFF;stroke-width:4.13;stroke-linecap:round;stroke-miterlimit:10;}
	.st9{fill:url(#SVGID_2_);}
	.st10{fill:url(#SVGID_3_);}
</style>
<title>Marketing</title>
<path class="st0" d="M193.8,42.1c-23.2,33.7-29.3,80.9-60.2,110.5c-15.6,15-35.7,24.1-53.8,35.8c-37.5,24.1-67.8,61.3-77,104.8
	c-8.2,37.9,1.5,86.1,32.1,112.5c15.7,13.5,29.1,20.8,40.4,39.6c12.2,20.4,18.8,39,37.4,54.3c18,14.8,38.4,26.6,58.5,38.3
	c21,12.2,42.3,24.6,65.6,31.4c24.3,7.2,49.9,8.2,75.3,8.2c36.2,0.1,74.7-2.2,104.3-23c26.1-18.3,38.5-46.2,52.6-73.4
	s30.8-51,48.2-76.5c16.5-24.1,33.3-48.9,39.5-77.4c3.7-17.8,3.2-36.3-1.6-53.8c-3.9-14.6-2.7-30.8-10.6-43.8
	c-11.1-18.2-25.8-34-43.2-46.3c-17.4-12.2-37.2-20.8-54.7-32.8s-33.4-29-36.9-50c-1.4-7.9-0.9-16-1.9-24
	C404.8,53.2,389,32.7,369,20.1S325.4,2.2,301.8,0.5c-25.1-1.8-51,0.6-73.7,11.4C213.1,19.2,202.3,29.8,193.8,42.1z"/>
<path class="st1" d="M137.6,208.2c-2.3-3.5-2.8-7.9-4.3-11.9s-4.3-8-8.5-8.4s-7.9,2.8-10.5,6.2c-1.5,1.8-2.7,3.8-3.4,6
	c-1.9,6.1,1.5,12.7,7.7,14.6c0.4,0.1,0.7,0.2,1.1,0.3c2.1,0.4,4.4,0.3,6.3,1.3c1.3,0.8,2.5,1.7,3.5,2.9c2.4,2.3,5.5,4.2,8.9,3.9
	c2.9-0.2,6.8-3.2,5.9-6.5C143.4,213.5,139.3,210.9,137.6,208.2z"/>
<path class="st2" d="M105,278.9v217.9c0,0,0,14.7,14.7,16.3c14.7,1.6,308.7,0,308.7,0s10.9,0.8,16.3-14c5.4-14.8,0-220.3,0-220.3
	L105,278.9z"/>
<path class="st3" d="M279.5,130L105,278.9l116.7,100.4c7.3,6.3,16.6,9.7,26.2,9.7h58.6c6.6,0,13.1-2.4,18.1-6.7l120.2-103.4
	L279.5,130z"/>
<path class="st4" d="M355.1,245.7c0,0.3-0.1,0.6-0.1,0.8c-2.3,13.2-9.4,25.1-19.9,33.4c-5.7,4.5-12.6,8.2-16.1,14.6
	c-2.2,4-2.7,8.7-3.2,13.3c-2.6,26.8-3.7,52.9-0.8,79.6l-8,1.6h-32.9c-3.2,0-13.1,0.9-21.9,0.8h-0.1c-7,0-13.4-0.6-15.1-2.7
	c-0.1-0.1-0.1-0.1-0.2-0.2c-0.1-0.1-0.2-0.2-0.2-0.3c-0.1-0.1-0.2-0.3-0.2-0.4s-0.2-0.4-0.3-0.5l-0.1-0.2
	c-2.3-5.3-2.1-14.5-2.7-19.6c-0.8-7.3-1.2-14.7-2.1-22.1c-1.7-14.9-5.1-30.1-14.2-42c-1.3-1.7-3.7-4.4-6.8-7.6
	c-10.8-11.4-29.8-29.7-37-36.1c-1.2-1-42.2-32.7-42.6-34.2c-1-4.3,11.1-10.2,13-14.2c13.5,7.8,66.8,46.1,80.3,53.9
	c6.5,3.8,13.2,7.6,20.5,9.4c15.4,3.8,31.4-1.7,46.4-7.1c10.2-3.7,23.9-9.4,34.7-16c4.6-2.9,11.7-8.4,5.1-8.2
	c-11.1,0.4-22.9-0.4-32.1,0.1c-1,0.2-2,0-2.7-0.6c-0.5-0.7-0.7-1.5-0.5-2.4c0.4-8.1-0.9-8.3,1.6-15.9c9.7,2.4,21.4,0.3,31.4,0.4
	c10.7,0.1,15.2-1.4,22,5.9c1.8,1.8,3.2,4,4.2,6.4C355.8,238.7,355.6,242.3,355.1,245.7z"/>
<path class="st1" d="M250.8,274.1c2.6,4.2,1.9,7,5.8,10.1c1.8,1.5,9.7,3,12.7,0.7c3.8-2.9,3.4-11.3,3.4-11.9c0-0.9-0.2-1.9-0.6-2.7
	c-1.3-2.8-2.4-5.6-3.3-8.4c-1-2.9-1.1-6-0.4-9c-1.7-1.7-4-2.6-6.4-2.5c-2.2,0.3-4.4,1.1-6.2,2.4c-1.4,1-5.9-6.2-6.8-4.7
	C248.2,249.4,250.7,270.6,250.8,274.1z"/>
<path class="st1" d="M263.5,262c1.7,0.2,3.3,0.1,4.9-0.3c4-1.3,5.9-6.2,5.4-11s-2.9-9.4-5.6-13.5c-3.3-5.2-7.2-10.1-11.5-14.6
	c-2.3-2.6-5-4.8-8-6.5c-4-2.1-8.7-2.3-12.9-0.7c-4,1.7-7.2,4.7-9.1,8.6c-2.1,3.9-2.8,8.4-2.2,12.8C227.3,253.7,250.9,261,263.5,262z
	"/>
<path class="st5" d="M276.5,234.4c-1.4,0.9-3.3,0.5-4.7-0.3c-2.2-1.1-3.8-3.1-4.6-5.4c-0.8-2.3-0.5-4.9,0.8-7c1-1.5,2.5-2.8,2.8-4.6
	c0,0,11.7-9.3,13.8-22.5s15.5-1,15.5-1S315,206.8,308,215c-1.4,1.5-3.6,2.2-5.6,1.7c-3-0.6-8.9-0.1-17.4,7.9L276.5,234.4z"/>
<path class="st1" d="M285,224.6c-1.5-0.2-3.1-0.1-4.5,0.5c-1.6,0.9-2.8,2.2-3.6,3.8c-0.7,1.1-1.2,2.4-1.3,3.8c0,1.8,0.9,3.4,1.9,4.9
	c0.5,1,1.3,1.9,2.2,2.6c1,0.5,2.1,0.8,3.2,0.8c1.8,0.2,3.8,0.3,5.3-0.6c0.6-0.5,1.2-0.9,1.9-1.3c1.9-0.8,4.4,0.7,5.9-0.7
	c0.6-0.8,0.9-1.7,0.9-2.7l0.4-5.8c0.1-1.6,0.8-3.4-0.9-3.9C293,224.7,288.4,224.6,285,224.6z"/>
<path class="st5" d="M287.7,236.3c0,0,11.6,11.9,15,11.9s-4.7,11.4-8.5,9.3c-3.9-2.1-11.5-16.6-11.5-16.6s2.1-4.5,3.2-4.9
	C286.6,235.8,287.3,235.9,287.7,236.3z"/>
<ellipse transform="matrix(0.769 -0.6393 0.6393 0.769 -60.0132 237.0422)" class="st3" cx="297.9" cy="201.5" rx="6.2" ry="15.1"/>
<linearGradient id="SVGID_1_" gradientUnits="userSpaceOnUse" x1="302.6638" y1="377.9289" x2="286.3838" y2="366.5589" gradientTransform="matrix(1 0 0 -1 -2.1826 577.7037)">
	<stop  offset="0" style="stop-color:#000000;stop-opacity:0"/>
	<stop  offset="0.99" style="stop-color:#000000"/>
</linearGradient>
<path class="st6" d="M288.3,190c2.6-2.2,9.1,1.2,14.4,7.6c5.3,6.4,7.5,13.4,4.9,15.5c-2.6,2.2-9.1-1.2-14.4-7.6
	C287.9,199.1,285.7,192.2,288.3,190z"/>
<path class="st2" d="M249.3,212.6c-0.9,3.6-3,6.9-5.9,9.2c-1.7,1.4-3.6,2.6-5.2,4.1c-1.7,1.4-3,3.3-3.7,5.4c-0.5,2.7,0,5.5,1.5,7.8
	c1.5,2.3,3.1,4.5,4.9,6.5c0.5,0.5,0.7,1.1,0.6,1.8c-0.2,0.7-1.1,0.9-1.9,0.9c-0.9-0.1-1.8-0.3-2.6-0.8c-0.4-0.3-0.9-0.5-1.4-0.6
	c-0.9,0-1.6,0.8-1.6,1.7c0,0.9,0.3,1.7,0.9,2.4c1.8,2.5,4.5,4,7.5,4.2c0.2,0.6-0.2,1.3-0.8,1.4c0,0,0,0,0,0
	c-0.6,0.1-1.2,0.1-1.8-0.1c-1.6-0.4-3.1-1-4.6-1.6l-5.8-2.2c-2.3-0.9-4.6-1.7-6.9-2.7c-1.8-0.6-3.4-1.6-4.7-2.9
	c-1.4-1.6-2-3.9-2.3-6c-0.5-2.1-0.5-4.3,0.1-6.3c0.6-1.9,2.1-3.6,2.2-5.6s-1.1-4-2.1-5.8c-1.1-2.2-1.9-4.7-1.1-7
	c0.7-1.8,2-3.3,3.6-4.2c1.7-0.9,3.5-1.5,5.4-1.8c1.6-0.3,3.4-0.5,4.7-1.6c2.9-2.5,1.4-8,4.4-10.3c3.2-2.5,8.4,0.7,11.4,2.3
	C248.2,203,250.5,207.9,249.3,212.6z"/>
<path class="st3" d="M119.7,513.2L212,412c13.3-14.6,32.2-23,52.1-23h21.3c20,0,39,8.5,52.4,23.3l90.7,100.8L119.7,513.2z"/>
<path class="st3" d="M485,178.1c0,25.7-20.8,46.5-46.5,46.6c-25.7,0-46.5-20.8-46.6-46.5c0-24.5,19-44.8,43.4-46.5v46.4H485z"/>
<path class="st3" d="M490,172.7h-49.6v-46.5c1-0.1,2.1-0.1,3.1-0.1C469.2,126.2,490,147,490,172.7C490,172.7,490,172.7,490,172.7z"
	/>
<path class="st3" d="M495.7,255.7h52.5c7.1,0,12.8,5.7,12.8,12.8v29.2c0,7.1-5.7,12.8-12.8,12.8h-52.5c-7.1,0-12.8-5.7-12.8-12.8
	v-29.2C482.9,261.4,488.6,255.7,495.7,255.7z"/>
<polygon class="st7" points="509,271.7 509,296 535.9,282.3 "/>
<polygon class="st3" points="524.7,189.2 524,201 513.3,207.2 524.9,213 526.1,225.8 536.8,214 548.6,215.1 543,206.4 545.1,193.8 
	534,198.3 "/>
<polygon class="st3" points="132.9,107 132.1,118.8 121.4,125 133.1,130.8 134.2,143.6 144.9,131.8 156.7,132.9 151.1,124.2 
	153.2,111.6 142.2,116.1 "/>
<rect x="11.9" y="171.5" class="st3" width="10.9" height="34.9"/>
<rect x="27.2" y="185.4" class="st3" width="10.9" height="21"/>
<rect x="42.5" y="177.7" class="st3" width="10.9" height="28.7"/>
<line class="st8" x1="310.9" y1="167.6" x2="304.7" y2="178.9"/>
<line class="st8" x1="323.9" y1="178.1" x2="312.4" y2="186.3"/>
<line class="st8" x1="332.4" y1="192.5" x2="318" y2="196.3"/>
<linearGradient id="SVGID_2_" gradientUnits="userSpaceOnUse" x1="285.9207" y1="250.1677" x2="-16.5093" y2="177.6077" gradientTransform="matrix(1 0 0 -1 -2.16 577.71)">
	<stop  offset="0" style="stop-color:#000000;stop-opacity:0"/>
	<stop  offset="0.99" style="stop-color:#000000"/>
</linearGradient>
<path class="st9" d="M260.1,388.5c-2.6,0.6-5.2,1-7.9,1.4h-0.1c-5.6,0.6-12.7,0.6-15.1-2.7c-0.1-0.1-0.1-0.1-0.2-0.2
	c-0.1-0.1-0.2-0.2-0.2-0.3c-0.1-0.1-0.2-0.3-0.2-0.4s-0.2-0.4-0.3-0.5l-0.1-0.2c-2.3-5.3-2.1-14.5-2.7-19.6
	c-0.8-7.3-1.2-14.7-2.1-22.1c-1.7-14.9-5.1-30.1-14.2-42c-1.3-1.7-6.8-8-9.9-11.2l4.3,1.8c0,0,33.6,14.5,36.7,27.9
	S260.1,388.5,260.1,388.5z"/>
<linearGradient id="SVGID_3_" gradientUnits="userSpaceOnUse" x1="338.2627" y1="322.8899" x2="335.3927" y2="235.2599" gradientTransform="matrix(1 0 0 -1 -2.16 577.71)">
	<stop  offset="0" style="stop-color:#000000;stop-opacity:0"/>
	<stop  offset="0.99" style="stop-color:#000000"/>
</linearGradient>
<path class="st10" d="M354.9,246.5c-2.3,13.2-9.4,25.1-19.9,33.4c-5.7,4.5-12.6,8.2-16.1,14.6c-2.2,4-2.7,8.7-3.2,13.3
	c0,0,1.1-21.9,8.9-29.1s28-28.8,29.5-38.6C354.6,242.3,354.9,244.4,354.9,246.5z"/>
</svg>
