<?xml version="1.0" encoding="utf-8"?>
<!-- Generator: Adobe Illustrator 23.0.1, SVG Export Plug-In . SVG Version: 6.00 Build 0)  -->
<svg version="1.1" id="Layer_1" xmlns="http://www.w3.org/2000/svg" xmlns:xlink="http://www.w3.org/1999/xlink" x="0px" y="0px"
	 viewBox="0 0 823.6 597" style="enable-background:new 0 0 823.6 597;" xml:space="preserve">
<style type="text/css">
	.st0{fill:#E6E6E6;enable-background:new    ;}
	.st1{opacity:5.000000e-02;fill:#000405;enable-background:new    ;}
	.st2{fill:#4F038E;}
	.st3{opacity:0.61;fill:url(#SVGID_1_);enable-background:new    ;}
	.st4{fill:url(#SVGID_2_);}
	.st5{fill:#FFFFFF;}
	.st6{fill:url(#SVGID_3_);}
	.st7{fill:url(#SVGID_4_);}
	.st8{fill:url(#SVGID_5_);}
	.st9{fill:#3F3D56;}
	.st10{fill:#FFB8B8;}
	.st11{fill:url(#SVGID_6_);}
	.st12{fill:url(#SVGID_7_);}
	.st13{opacity:0.22;fill:#FFFFFF;enable-background:new    ;}
</style>
<title>6. New Messages</title>
<path class="st0" d="M131.3,125c-24.3,5.2-49.6,10.8-69.2,26.2c-16.5,13-42.2,37-50,56.5c-33,82.4,4.3,182.6,76.7,233.9
	c34.1,24.1,76.5,35.8,107.1,64.2c19.4,18,32.9,41.7,53.5,58.2c30.1,24.1,70.7,29.4,109.2,32c26.7,1.8,54.5,2.6,79.3-7.6
	c17.9-7.3,33.1-19.9,48-32.3l98.7-82.4c15.9-13.2,30.7-34.3,51.3-34.2c185.9,1.3,198.4-217.4-86.9-314.3
	c-25.1-8.5-42.4-32.3-66-44.5c-48.8-25.2-104.9-17-154.1,0.4C266.5,103.2,196.1,111.2,131.3,125z"/>
<path class="st1" d="M779.1,477.9c7.8,0.1,17.8,2.1,19,9.8c0.7,4-1.6,7.9-4.1,11.1c-15.5,20.3-41.2,30.5-66.6,33.3
	s-50.9-1.1-76.2-4.2c-36.6-4.5-73.3-7.5-110.2-9c-26.2-1.1-53.8-1.7-76.4-15.1c-4.2-2.5-8.3-5.6-10.3-10c-4-8.8,2.3-19.6,11-23.9
	s18.9-3.9,28.6-3.4C588.9,471.6,683.8,477.9,779.1,477.9z"/>
<path class="st2" d="M779.4,126.4c0,0-33.8,43.7-40.2,51.1c-11.7,13.3-19.3,30.8-19.3,30.8l-17,72.3l-19-5.1l-41.3-11
	c0,0,14.7-39.5,7.6-51.5c-9.5-16-1.3-26,0.9-32.9c4-12.7-16.4-36-16.4-36l-13.1-58.6l19.8-2.6l14.3,47.5l24.6,21.9l17.5,0.9
	c0,0,13.2,2.7,22.8-1.7c9.2-4.3,41.6-40.8,41.6-40.8l13.2,12L779.4,126.4z"/>
<path class="st2" d="M617.3,200.6v260.6c0,13.7-11.1,24.9-24.9,24.9l0,0H202.8c-13.7,0-24.9-11.1-24.9-24.9l0,0V200.6
	c0-13.7,11.1-24.9,24.8-24.9h389.7C606.2,175.7,617.3,186.8,617.3,200.6C617.3,200.6,617.3,200.6,617.3,200.6z"/>
<path class="st2" d="M610.6,183.7H184l3.5-2.6c0.2-0.1,0.3-0.3,0.5-0.4L390.9,25.1l6.4-4.9l206.5,158.3L610.6,183.7z"/>
<path class="st2" d="M617.3,200.6l-5.2,3.8l0,0l-37.8,27.4L390.9,364.6L214.4,228.7l-36.5-28.1l0.5-4.8c0.9-4.5,3-8.7,6.2-12.1
	c0.9-1,1.8-1.8,2.9-2.6c0.2-0.1,0.3-0.3,0.5-0.4c4.3-3.2,9.5-4.9,14.8-4.9h389.7c12.8,0,23.5,9.7,24.8,22.5
	C617.3,199,617.3,199.8,617.3,200.6z"/>
<linearGradient id="SVGID_1_" gradientUnits="userSpaceOnUse" x1="184.4686" y1="-321.3768" x2="188.2986" y2="-331.7868" gradientTransform="matrix(1 0 0 1 -0.33 508)">
	<stop  offset="0.36" style="stop-color:#00272E"/>
	<stop  offset="0.75" style="stop-color:#3F80A1;stop-opacity:0.25"/>
	<stop  offset="1" style="stop-color:#69B9EB;stop-opacity:0"/>
</linearGradient>
<path class="st3" d="M187.4,181c-1,0.8-2,1.7-2.9,2.6H184L187.4,181z"/>
<linearGradient id="SVGID_2_" gradientUnits="userSpaceOnUse" x1="444.6867" y1="566.3909" x2="323.6867" y2="136.3909" gradientTransform="matrix(1 0 0 -1 0 598)">
	<stop  offset="0" style="stop-color:#000000;stop-opacity:0"/>
	<stop  offset="0.91" style="stop-color:#000000;stop-opacity:0.8"/>
	<stop  offset="1" style="stop-color:#000000"/>
</linearGradient>
<path class="st4" d="M617.3,200.6l-5.2,3.8l0,0l-37.8,27.4L390.9,364.6L214.4,228.7l-36.5-28.1l0.5-4.8c1.2-5.8,4.4-11.1,9.1-14.8
	l0.5-0.4L390.9,25.1l6.4-4.9l206.5,158.3c7.6,3.9,12.6,11.3,13.5,19.8C617.3,199,617.3,199.8,617.3,200.6z"/>
<path class="st5" d="M574.3,181.3v50.4l-67.7,49L491.1,292l-100.2,72.6L296.6,292L282,280.8l-67.6-52v-47.4
	c0-8.2,6.6-14.8,14.8-14.8c0,0,0,0,0,0h330.4C567.7,166.6,574.3,173.2,574.3,181.3z"/>
<linearGradient id="SVGID_3_" gradientUnits="userSpaceOnUse" x1="405.8424" y1="448.1695" x2="332.8424" y2="98.1695" gradientTransform="matrix(1 0 0 -1 0 598)">
	<stop  offset="0" style="stop-color:#000000;stop-opacity:0"/>
	<stop  offset="0.91" style="stop-color:#000000;stop-opacity:0.8"/>
	<stop  offset="1" style="stop-color:#000000"/>
</linearGradient>
<path class="st6" d="M524.7,225.5h-267c-3.1,0-5.6-2.5-5.6-5.6l0,0c0-3.1,2.5-5.6,5.6-5.6h267c3.1,0,5.6,2.5,5.6,5.6l0,0
	C530.3,223,527.8,225.5,524.7,225.5z"/>
<linearGradient id="SVGID_4_" gradientUnits="userSpaceOnUse" x1="412.4897" y1="446.7901" x2="339.4897" y2="96.79" gradientTransform="matrix(1 0 0 -1 0 598)">
	<stop  offset="0" style="stop-color:#000000;stop-opacity:0"/>
	<stop  offset="0.91" style="stop-color:#000000;stop-opacity:0.8"/>
	<stop  offset="1" style="stop-color:#000000"/>
</linearGradient>
<path class="st7" d="M524.7,258.8h-267c-3.1,0-5.6-2.5-5.6-5.6l0,0c0-3.1,2.5-5.6,5.6-5.6h267c3.1,0,5.6,2.5,5.6,5.6l0,0
	C530.3,256.2,527.8,258.8,524.7,258.8z"/>
<linearGradient id="SVGID_5_" gradientUnits="userSpaceOnUse" x1="420.974" y1="445.0092" x2="347.974" y2="95.0091" gradientTransform="matrix(1 0 0 -1 0 598)">
	<stop  offset="0" style="stop-color:#000000;stop-opacity:0"/>
	<stop  offset="0.91" style="stop-color:#000000;stop-opacity:0.8"/>
	<stop  offset="1" style="stop-color:#000000"/>
</linearGradient>
<polygon class="st8" points="506.6,280.8 491.1,292 296.6,292 282,280.8 "/>
<polygon class="st1" points="390.9,364.6 228,486 557.1,486 "/>
<path class="st2" d="M250.4,90.2c-8.2-17.6-39-14.7-39-14.7c19-11.2,15.4-39.7,15.1-41.4l0,0c8.3,24.8,37,19.3,39.6,18.8
	C247.1,57.6,250.4,90.2,250.4,90.2z"/>
<path class="st2" d="M197,126.3c-5.2-11.2-24.8-9.3-24.8-9.3l0,0c12.4-7.4,9.6-26.3,9.6-26.3v0.1c5.3,15.7,23.5,12.2,25.1,11.9
	C194.9,105.6,197,126.3,197,126.3z"/>
<path class="st9" d="M721.6,92.7c2.4-1.9,5.5-2.9,8.6-2.7c2.3-0.1,4.5,0.7,6.2,2.1c1.3,1.5,2.2,3.3,2.4,5.3c0.5,2.5,0.7,5,0.5,7.5
	c-0.2,4.6-1.4,9.4,0.6,13.6c0.5,1,1.1,1.9,1.9,2.7c0.9,1,2.1,1.6,3.5,1.7c1.4,0.1,2.6-0.9,2.9-2.2c-2.4,5.4-8.7,7.7-14,5.3
	c0,0,0,0,0,0c-0.8-0.4-1.6-0.9-2.3-1.4l1.7,3.5c-1.4-0.4-2.8-0.9-4.2-1.6c-4.2-2.3-6.6-7-7.8-11.7c-1-4.3-1.2-8.8-2.1-13.2
	C718.7,98.2,718.8,95.1,721.6,92.7z"/>
<path class="st2" d="M720.3,97.5c0.9,0,1.7,0.1,2.5,0.4c1.4,0.6,2.3,1.9,2.5,3.3c0.1,1.5-0.7,2.9-2.1,3.6c-0.9,0.3-1.8,0.5-2.7,0.5
	c-0.8,0-1.7,0-2.5-0.1c-0.5,0-1-0.3-1.2-0.8c-0.5-1.1-1-2.2-1.2-3.4C714.9,97.2,717.4,97.5,720.3,97.5z"/>
<path class="st10" d="M704,132.6c0,0-0.2,2.9-0.4,6.6c-0.2,3.2-0.4,7-0.5,10.2c-0.3,5.4-2.6,10.5-6.5,14.2
	c-2.3,2.3-7.7,6.6-11.8,5.1c-2-0.7-2.1-3.3-1.7-4.8c0.9-2.8,1.4-5.6,1.5-8.5c0.1-2.3-0.1-4.7-0.6-7C681.5,142,704,132.6,704,132.6z"
	/>
<path class="st10" d="M704,132.6c0,0-0.2,2.9-0.4,6.6c-1.6,3.5-3.1,6.4-3.9,7.8c-1.6,2.9-8.3,7.4-15,8.4c0.1-2.3-0.1-4.7-0.6-7
	C681.5,142,704,132.6,704,132.6z"/>
<path class="st10" d="M684.4,94.3c-11.8,0.7-20.9,10.9-20.2,22.8c0,0.5,0.1,1,0.2,1.5c0.7,8.7,2.9,17.3,6.6,25.2
	c7,12,24.7,2.1,27.5-2.8s13.6-27.2,9.1-33.5C704.5,103.2,695.9,93.9,684.4,94.3z"/>
<path class="st9" d="M678.1,82.1c7.5-2.2,15.6-2,22.9,0.7c7.3,2.8,13.5,8.4,16.3,15.7c2.4,6.7,2.2,14.1-0.6,20.7
	c-2.8,6.5-7.3,12.2-13,16.4c-1.5-4.5,3.1-8.5,4.8-12.9c0.4-0.8,0.5-1.7,0.2-2.6c-0.6-1.6-3.1-1.8-4.5-0.8s-2,2.8-2.5,4.5
	c1.3-7.2,2.3-15.6-2.7-20.8c-3-3.1-7.5-4.3-11.8-4.3c-8,0-15.7,3.3-21.2,9.1c-1.6,1.7-3.8,3.8-5.9,2.6c-0.6-0.4-1.1-1-1.4-1.7
	C652.8,97,668.5,84.8,678.1,82.1z"/>
<path class="st9" d="M687.8,95.3c-5-2.2-10.2-4-15.7-4s-11.1,1.8-14.7,5.9c-1.9,2.3-3.2,4.9-4,7.8c-0.6,1.8-0.8,3.7-0.7,5.5
	c0.2,1.4,0.6,2.7,1,4c0.9,3.2,1.3,7-0.7,9.7c-0.8,1.1-2,1.8-3.3,1.9c-1.4,0-2.5-1-2.7-2.3c-0.9,2.5,0.6,5.4,2.8,6.7
	c2.4,1.2,5.2,1.3,7.7,0.4c1-0.3,2-0.9,2.8-1.6c0.8-0.8,1.5-1.7,2-2.8c2.1-3.8,3.1-8,4.7-12.1s3.8-8,7.5-10.3
	c2.9-1.6,6.2-2.4,9.5-2.4c3.3-0.1,6.6,0.2,9.9-0.1s0.9-2.3-0.5-3.3C691.7,97.2,689.8,96.2,687.8,95.3z"/>
<path class="st10" d="M822.1,59.5c0.8,0.7-7.1,6.9-7.1,6.9s-3.7,6.4-7.5,8.2s-32.2,48.2-32.2,48.2l-11.2-10.2L788.3,80
	c0,0,8-15.3,7.1-22c0,0,0.5-7.9,2.9-4.2c1.7,2.6,0.6,6.7,2.6,7.2c0.2,0,0.4,0,0.6-0.1c1.7-1,3.2-2.2,4.5-3.6c4-3.8,8.8-9.1,8.8-9.1
	s2.6-1.1,2.3,0s-5.1,8.6-5.4,9c0.5-0.4,7.8-7,9-6.5s-5.7,8.1-6.1,8.5c0.4-0.3,8.3-5.8,8.9-5.3c1.1,0.9-6,7.1-6.6,7.6
	C817.4,61.1,821.3,58.8,822.1,59.5z"/>
<path class="st10" d="M618.4,7.4c-1.1,0.1,2.4,9.6,2.4,9.6s-0.2,7.4,2,10.9s2,57.1,2,57.1l14.9-2l-3.4-40.4c0,0,1.3-17.2,5.6-22.4
	c0,0,3.7-6.9-0.2-5.1c-2.8,1.3-4.1,5.4-6,4.7c-0.2-0.1-0.4-0.3-0.5-0.5c-0.9-1.7-1.6-3.6-2-5.5c-1.4-5.4-2.7-12.4-2.7-12.4
	s-1.6-2.3-1.9-1.2s-0.2,10-0.2,10.5c-0.2-0.6-3-10.1-4.2-10.3s0.6,9.9,0.7,10.5c-0.2-0.5-4-9.3-4.8-9.2c-1.4,0.2,1.4,9.2,1.6,9.9
	C621.5,11.3,619.4,7.3,618.4,7.4z"/>
<linearGradient id="SVGID_6_" gradientUnits="userSpaceOnUse" x1="533.1652" y1="-37.8889" x2="540.8752" y2="-5.7688" gradientTransform="matrix(1 0 0 1 -0.33 508)">
	<stop  offset="0" style="stop-color:#68E1FD"/>
	<stop  offset="1.000000e-02" style="stop-color:#67DDF9"/>
	<stop  offset="0.12" style="stop-color:#5CB3CE"/>
	<stop  offset="0.24" style="stop-color:#538EA9"/>
	<stop  offset="0.37" style="stop-color:#4C718B"/>
	<stop  offset="0.5" style="stop-color:#465A73"/>
	<stop  offset="0.63" style="stop-color:#424A63"/>
	<stop  offset="0.79" style="stop-color:#404059"/>
	<stop  offset="0.99" style="stop-color:#3F3D56"/>
</linearGradient>
<path class="st11" d="M565.7,479.2c-4,8.2-6.9,14.5-6.9,14.5l-50.3,2.4c0,0,8.3-22.1,21.9-16.4c4.6,1.9,21.2-1.7,21.2-1.7l0.5-1.7
	L565.7,479.2z"/>
<path class="st9" d="M744,481.7l-7.7,4.3l-66-69.4l-7.3-92.6l-60.2,54.6c0,0,1.6,37.6-19.4,67c-3.8,5.3-11.4,20.6-17.2,32.5
	c-0.2,0.4-0.4,0.8-0.5,1.1l-1.1-0.2l-3.9-0.8l-8.5-1.8l27.7-111.8l62.9-100.1l41.3,11l19,5.1c0,0,12.8,25.7,0,92.2l-8.5,38.1
	c0,0,34.3,18.3,44.8,54.4L744,481.7L744,481.7z"/>
<linearGradient id="SVGID_7_" gradientUnits="userSpaceOnUse" x1="723.213" y1="-16.245" x2="736.063" y2="1.735" gradientTransform="matrix(1 0 0 1 -0.33 508)">
	<stop  offset="0" style="stop-color:#68E1FD"/>
	<stop  offset="1.000000e-02" style="stop-color:#67DDF9"/>
	<stop  offset="0.12" style="stop-color:#5CB3CE"/>
	<stop  offset="0.24" style="stop-color:#538EA9"/>
	<stop  offset="0.37" style="stop-color:#4C718B"/>
	<stop  offset="0.5" style="stop-color:#465A73"/>
	<stop  offset="0.63" style="stop-color:#424A63"/>
	<stop  offset="0.79" style="stop-color:#404059"/>
	<stop  offset="0.99" style="stop-color:#3F3D56"/>
</linearGradient>
<path class="st12" d="M744,481.7l7.8,8.2L732,510.6h-26c0,0,5.5-9.1,16.6-10.6s13.7-14,13.7-14L744,481.7z"/>
<path class="st13" d="M215.8,74.1l-4.4,1.4c19-11.2,15.4-39.7,15.1-41.4c0.3,1.3,4.7,20.1,2.3,26.3
	C225.9,68.2,215.8,74.1,215.8,74.1z"/>
<path class="st13" d="M184.4,108.4c-2.3,3.2-11.5,8.2-12.2,8.5c12.4-7.4,9.6-26.3,9.6-26.3v0.1C182.3,92,186.7,105.3,184.4,108.4z"
	/>
<polygon class="st13" points="178.6,214.3 382.3,371 390.9,364.6 177.9,200.6 "/>
<polygon class="st13" points="397.6,370 617.3,211.8 617.3,201 390.9,365 "/>
<path class="st13" d="M617.2,198.6l-0.6,1.7l-4.5,4.5c3.1-5.4-5.7-18-5.7-18l-3.5-2.6l-10.6-8L390.9,25.5l6.4-4.9l206.5,158.3
	C611.3,182.7,616.4,190.2,617.2,198.6z"/>
</svg>
