<?xml version="1.0" encoding="utf-8"?>
<!-- Generator: Adobe Illustrator 23.0.1, SVG Export Plug-In . SVG Version: 6.00 Build 0)  -->
<svg version="1.1" id="Layer_1" xmlns="http://www.w3.org/2000/svg" xmlns:xlink="http://www.w3.org/1999/xlink" x="0px" y="0px"
	 viewBox="0 0 444.1 407.3" style="enable-background:new 0 0 444.1 407.3;" xml:space="preserve">
<style type="text/css">
	.st0{fill:#E6E6E6;enable-background:new    ;}
	.st1{display:none;fill:#4F038E;}
	.st2{fill:#3F3D56;}
	.st3{fill:#4F038E;}
	.st4{fill:url(#SVGID_1_);}
	.st5{fill:#FFFFFF;}
	.st6{fill:#FFB8B8;}
	.st7{opacity:0.92;fill:#4F038E;enable-background:new    ;}
	.st8{opacity:0.27;fill:#FFFFFF;enable-background:new    ;}
	.st9{fill:url(#SVGID_2_);}
	.st10{fill:url(#SVGID_3_);}
	.st11{fill:url(#SVGID_4_);}
	.st12{fill:url(#SVGID_5_);}
	.st13{fill:url(#SVGID_6_);}
	.st14{fill:url(#SVGID_7_);}
	.st15{fill:url(#SVGID_8_);}
	.st16{fill:url(#SVGID_9_);}
	.st17{fill:url(#SVGID_10_);}
	.st18{fill:url(#SVGID_11_);}
	.st19{fill:url(#SVGID_12_);}
	.st20{fill:url(#SVGID_13_);}
	.st21{fill:url(#SVGID_14_);}
	.st22{fill:url(#SVGID_15_);}
	.st23{fill:url(#SVGID_16_);}
	.st24{fill:url(#SVGID_17_);}
	.st25{fill:url(#SVGID_18_);}
	.st26{fill:url(#SVGID_19_);}
	.st27{fill:url(#SVGID_20_);}
	.st28{fill:url(#SVGID_21_);}
	.st29{fill:url(#SVGID_22_);}
	.st30{fill:url(#SVGID_23_);}
	.st31{fill:url(#SVGID_24_);}
	.st32{fill:url(#SVGID_25_);}
	.st33{opacity:0.52;}
</style>
<title>code 1</title>
<path class="st0" d="M367.6,336.3c-13.2,5.1-27.2,8.2-40.1,13.9c-21.1,9.3-38.7,25.2-58.7,36.8c-8.6,5-17.7,9.1-27.2,12.3
	c-9.3,3.1-19,5.3-28.8,6.6c-13,1.7-26.1,2-39.1,1c-12.6-1-25-2.9-37.3-5.7c-18.5-4.3-36.6-9.9-54.3-16.8
	C27.2,363.1-8.6,253.6,15.3,201.9c10.5-22.8,31.1-39.2,45.9-59.5C88.8,104.8,97,53.1,133.1,23.6c23.4-19.1,55.2-25.4,85.3-23.1
	s58.9,12.7,87,23.9c13.5,5.4,27.3,11.1,38.2,20.8c19.3,16.9,27.1,43,39.3,65.6c20,37,53.7,68.1,60.2,109.5
	C450.8,269.6,414.1,318.4,367.6,336.3z"/>
<rect x="134.3" y="277.6" class="st1" width="145.9" height="56.4"/>
<rect x="134.3" y="274.1" class="st2" width="145.9" height="56.4"/>
<rect x="140" y="283.4" class="st3" width="9.6" height="8.3"/>
<rect x="140" y="293.3" class="st3" width="9.6" height="8.3"/>
<rect x="140" y="303.1" class="st3" width="9.6" height="8.3"/>
<rect x="140" y="313" class="st3" width="9.6" height="8.3"/>
<rect x="152.7" y="283.4" class="st3" width="9.6" height="8.3"/>
<rect x="152.7" y="293.3" class="st3" width="9.6" height="8.3"/>
<rect x="152.7" y="303.1" class="st3" width="9.6" height="8.3"/>
<rect x="152.7" y="313" class="st3" width="9.6" height="8.3"/>
<rect x="165.4" y="283.4" class="st3" width="9.6" height="8.3"/>
<rect x="165.4" y="293.3" class="st3" width="9.6" height="8.3"/>
<rect x="165.4" y="303.1" class="st3" width="9.6" height="8.3"/>
<rect x="165.4" y="313" class="st3" width="9.6" height="8.3"/>
<rect x="178" y="283.4" class="st3" width="9.6" height="8.3"/>
<rect x="178" y="293.3" class="st3" width="9.6" height="8.3"/>
<rect x="178" y="303.1" class="st3" width="9.6" height="8.3"/>
<rect x="190.7" y="283.4" class="st3" width="9.6" height="8.3"/>
<rect x="190.7" y="293.3" class="st3" width="9.6" height="8.3"/>
<rect x="190.7" y="303.1" class="st3" width="9.6" height="8.3"/>
<rect x="203.4" y="283.4" class="st3" width="9.6" height="8.3"/>
<rect x="203.4" y="293.3" class="st3" width="9.6" height="8.3"/>
<rect x="203.4" y="303.1" class="st3" width="9.6" height="8.3"/>
<rect x="216.1" y="283.4" class="st3" width="9.6" height="8.3"/>
<rect x="216.1" y="293.3" class="st3" width="9.6" height="8.3"/>
<rect x="216.1" y="303.1" class="st3" width="9.6" height="8.3"/>
<rect x="228.8" y="283.4" class="st3" width="9.6" height="8.3"/>
<rect x="228.8" y="293.3" class="st3" width="9.6" height="8.3"/>
<rect x="228.8" y="303.1" class="st3" width="9.6" height="8.3"/>
<rect x="241.4" y="283.4" class="st3" width="9.6" height="8.3"/>
<rect x="241.4" y="293.3" class="st3" width="9.6" height="8.3"/>
<rect x="241.4" y="303.1" class="st3" width="9.6" height="8.3"/>
<rect x="241.4" y="313" class="st3" width="9.6" height="8.3"/>
<rect x="254.1" y="283.4" class="st3" width="9.6" height="8.3"/>
<rect x="254.1" y="293.3" class="st3" width="9.6" height="8.3"/>
<rect x="254.1" y="303.1" class="st3" width="9.6" height="8.3"/>
<rect x="254.1" y="313" class="st3" width="9.6" height="8.3"/>
<rect x="266.8" y="283.4" class="st3" width="9.6" height="8.3"/>
<rect x="266.8" y="293.3" class="st3" width="9.6" height="8.3"/>
<rect x="266.8" y="303.1" class="st3" width="9.6" height="8.3"/>
<rect x="266.8" y="313" class="st3" width="9.6" height="8.3"/>
<rect x="163.4" y="313.5" class="st3" width="75.2" height="8.1"/>
<linearGradient id="SVGID_1_" gradientUnits="userSpaceOnUse" x1="241.7843" y1="83.9456" x2="280.1443" y2="83.9456" gradientTransform="matrix(1 0 0 -1 -88.24 406.95)">
	<stop  offset="0" style="stop-color:#FFB8B8"/>
	<stop  offset="0.42" style="stop-color:#FFB8B8"/>
	<stop  offset="1" style="stop-color:#FFB8B8"/>
</linearGradient>
<path class="st4" d="M155.2,313c0.3-1.1,1-2.5,2.1-2.1c0.6,0.2,0.9,0.8,1.1,1.4c0.6,1.6,3,3.8,3.6,5.4c0.1-4,0.3-14.1,2.7-19.9
	c0.3-0.8,1.2-1.1,2-0.8c0.5,0.2,0.8,0.6,0.9,1.2c0.9,6.6,1.5,17.2,1.9,15c0.5-2.8,2-24.8,6.1-22.3c1.3,3.9,0.4,19.1-0.1,23.2
	c1.1-5.4,3.2-26.9,7.3-24.6c2.6,6.9-2.8,24.4-0.3,31.3c0.5,1.3,1.5,2.6,2.8,2.5s2.1-1.5,2.1-2.8s-0.3-2.6-0.2-3.9
	c0-0.7,0.4-1.4,1-1.7c1.2-0.5,2.2,1,2.6,2.3c1.6,6,1.5,12.4-0.3,18.4c-1.9,6.2-5.6,11.8-9.2,17.2c-0.5,0.8-1.1,1.5-1.8,2.1
	c-0.4,0.3-0.8,0.5-1.2,0.6c-3.1,1-6.4,1.5-9.7,1.4c-14.2-0.8-12.9-9.9-14-17.7C153,330.4,153.3,321.5,155.2,313z"/>
<path class="st5" d="M155.4,357.5c0.6-1.3,1.6-2.4,2.9-3c0.8-0.2,1.6-0.4,2.4-0.3c6.6-0.1,13.2,0.4,19.7,1.6c0.6,0,1.2,0.3,1.6,0.8
	c0.2,0.4,0.4,0.8,0.4,1.2c0.4,3.2,0.1,6.5-1,9.6c-0.1,0.5-0.4,0.9-0.8,1.2c-0.4,0.2-0.9,0.2-1.3,0.1c-6.7-0.8-13.4-1.1-20.1-1.1
	C152.3,367.5,152.4,362.9,155.4,357.5z"/>
<path class="st3" d="M180.6,406.7c-13.1-1-26.1-3-38.8-5.9c-0.4-1.3-0.5-2.6-0.2-4c1.6-9.9,5-19.5,10-28.2c0.4-0.9,1.1-1.7,2-2.2
	c0.7-0.3,1.4-0.4,2.2-0.4c8.2-0.2,16.4,0.4,24.5,1.9c1.2,0.1,2.3,0.6,3.2,1.5c0.4,0.8,0.6,1.6,0.6,2.5
	C184.4,383.6,183.3,395.3,180.6,406.7z"/>
<path class="st6" d="M210,353.7c-0.5-1-1-2.4,0-3c0.5-0.3,1-0.3,1.5-0.2c1.9,0.3,3.6,1,5.2,2.1c2.4,1.7,5,4.3,7.7,3.1
	c2.3-1,2.5-4.2,2.4-6.8c-0.5-8.5-1-17.1-1.5-25.6c0-0.9,0-1.9,0.7-2.3c1.1-0.6,2.2,0.8,2.7,2l6.1,15.5c1.2-3.7-0.2-16.5,0.4-22.2
	c0.1-0.9,0.9-1.6,1.8-1.5c0.6,0.1,1.1,0.4,1.4,1c1.9,4.5,3.9,16,4.2,18.7c1,8.2,1.5,1,1.8-0.4c0.7-3.4-0.2-15,1.8-15.9
	c3,0.2,4,4.1,4.1,7.1s-1.5,14.7,1.4,15.4c1.3-3.3,1.2-9.2,3-9.4c2.7,1.3,0.3,13.7-0.5,16.6c-2.6,8.7-0.9,7.5-3.5,16.2
	c-0.5,2.2-1.5,4.2-2.8,6c-1.7,1.7-3.9,2.9-6.2,3.5C227,377.8,216.2,365,210,353.7z"/>
<path class="st5" d="M227.4,385.5c0,0.8,0.3,1.5,0.9,2c0.3,0.2,0.7,0.3,1.1,0.3c5.9,0.7,11.9,0.3,17.6-1.3c0.6-0.1,1.2-0.4,1.6-0.8
	c0.4-0.5,0.7-1.2,0.8-1.8c0.6-3.9-1.2-7.7-2.8-11.2c-0.1-0.3-0.3-0.5-0.5-0.6c-0.3-0.1-0.6-0.1-0.9,0c-2.8,0.5-5.6,0.8-8.5,1
	c-2.1,0.1-5.4-0.5-7.4,0.3C225.6,374.9,227,382.1,227.4,385.5z"/>
<path class="st3" d="M253.7,398.1c-9.8,3.2-19.8,5.5-30,6.8c0.1-4,0.2-8.1,0.6-12.1c0.3-3.4,3.7-10.2,7.8-10.2
	c4.2-1.8,8.9-1.9,13.4-2c1.6,0,3.4,0,4.6,1s1.4,2.5,1.7,4C252.4,389.8,253.2,394,253.7,398.1z"/>
<polygon class="st7" points="318.3,245.8 76.8,245.8 11.5,109.6 399.9,109.6 "/>
<path class="st8" d="M131.1,231.9H36.2c-5.5,0-11.4-3.1-13.2-6.9L6.6,190.1c-1.8-3.8,1.3-6.9,6.8-6.9h94.9c5.5,0,11.4,3.1,13.2,6.9
	l16.3,34.9C139.6,228.8,136.6,231.9,131.1,231.9z"/>
<path class="st5" d="M125,240.7H30c-5.5,0-11.4-3.1-13.2-6.9L0.5,198.9c-1.8-3.8,1.2-6.9,6.8-6.9h94.9c5.5,0,11.4,3.1,13.2,6.9
	l16.4,34.9C133.5,237.6,130.5,240.7,125,240.7z"/>
<path class="st8" d="M300.6,201.2h94.9c5.5,0,11.4-3.1,13.2-6.9l16.3-34.9c1.8-3.8-1.2-6.9-6.8-6.9h-94.9c-5.5,0-11.4,3.1-13.2,6.9
	l-16.4,34.9C292,198.1,295.1,201.2,300.6,201.2z"/>
<path class="st5" d="M300.6,213.4h94.9c5.5,0,11.4-3.1,13.2-6.9l16.3-34.9c1.8-3.8-1.2-6.9-6.8-6.9h-94.9c-5.5,0-11.4,3.1-13.2,6.9
	l-16.4,34.9C292,210.4,295.1,213.4,300.6,213.4z"/>
<linearGradient id="SVGID_2_" gradientUnits="userSpaceOnUse" x1="229.7613" y1="-361.83" x2="225.9413" y2="-157.42" gradientTransform="matrix(1 0 0 1 -88.24 359.13)">
	<stop  offset="0" style="stop-color:#FFFFFF;stop-opacity:0"/>
	<stop  offset="0.99" style="stop-color:#FFFFFF"/>
</linearGradient>
<polygon class="st9" points="102.9,135.6 174.1,135.6 174.9,140.7 105.2,140.7 "/>
<linearGradient id="SVGID_3_" gradientUnits="userSpaceOnUse" x1="219.6285" y1="-351.06" x2="216.0985" y2="-162.08" gradientTransform="matrix(1 0 0 1 -88.24 359.13)">
	<stop  offset="0" style="stop-color:#FFFFFF;stop-opacity:0"/>
	<stop  offset="0.99" style="stop-color:#FFFFFF"/>
</linearGradient>
<polygon class="st10" points="107.3,145.2 149,145.2 150.2,149.7 109.4,149.7 "/>
<linearGradient id="SVGID_4_" gradientUnits="userSpaceOnUse" x1="322.2162" y1="-351.6901" x2="318.6062" y2="-159.3401" gradientTransform="matrix(1 0 0 1 -88.24 359.13)">
	<stop  offset="0" style="stop-color:#FFFFFF;stop-opacity:0"/>
	<stop  offset="0.99" style="stop-color:#FFFFFF"/>
</linearGradient>
<polygon class="st11" points="165.8,145.2 297,145.2 295.2,149.7 166.7,149.7 "/>
<linearGradient id="SVGID_5_" gradientUnits="userSpaceOnUse" x1="250.8421" y1="-340.96" x2="247.5221" y2="-164.69" gradientTransform="matrix(1 0 0 1 -88.24 359.13)">
	<stop  offset="0" style="stop-color:#FFFFFF;stop-opacity:0"/>
	<stop  offset="0.99" style="stop-color:#FFFFFF"/>
</linearGradient>
<polygon class="st12" points="132.3,154.2 187.3,154.2 187.7,158.5 133.8,158.5 "/>
<linearGradient id="SVGID_6_" gradientUnits="userSpaceOnUse" x1="274.5483" y1="-331.86" x2="271.4383" y2="-166.61" gradientTransform="matrix(1 0 0 1 -88.24 359.13)">
	<stop  offset="0" style="stop-color:#FFFFFF;stop-opacity:0"/>
	<stop  offset="0.99" style="stop-color:#FFFFFF"/>
</linearGradient>
<polygon class="st13" points="152.2,162.4 215.3,162.4 215.2,166.4 153.4,166.4 "/>
<linearGradient id="SVGID_7_" gradientUnits="userSpaceOnUse" x1="336.4977" y1="-330.37" x2="333.4277" y2="-165.67" gradientTransform="matrix(1 0 0 1 -88.24 359.13)">
	<stop  offset="0" style="stop-color:#FFFFFF;stop-opacity:0"/>
	<stop  offset="0.99" style="stop-color:#FFFFFF"/>
</linearGradient>
<polygon class="st14" points="219.4,162.4 272.2,162.4 270.9,166.9 219.2,166.9 "/>
<linearGradient id="SVGID_8_" gradientUnits="userSpaceOnUse" x1="268.5991" y1="-322.51" x2="265.7191" y2="-168.58" gradientTransform="matrix(1 0 0 1 -88.24 359.13)">
	<stop  offset="0" style="stop-color:#FFFFFF;stop-opacity:0"/>
	<stop  offset="0.99" style="stop-color:#FFFFFF"/>
</linearGradient>
<polygon class="st15" points="154.3,170 201.2,170 201.4,173.6 155.3,173.6 "/>
<linearGradient id="SVGID_9_" gradientUnits="userSpaceOnUse" x1="344.8356" y1="-324.3401" x2="341.8956" y2="-166.9001" gradientTransform="matrix(1 0 0 1 -88.24 359.13)">
	<stop  offset="0" style="stop-color:#FFFFFF;stop-opacity:0"/>
	<stop  offset="0.99" style="stop-color:#FFFFFF"/>
</linearGradient>
<polygon class="st16" points="205.7,170 302.5,170 300.7,173.9 205.8,173.9 "/>
<linearGradient id="SVGID_10_" gradientUnits="userSpaceOnUse" x1="242.3703" y1="-275.56" x2="239.7203" y2="-133.82" gradientTransform="matrix(1 0 0 1 -88.24 359.13)">
	<stop  offset="0" style="stop-color:#FFFFFF;stop-opacity:0"/>
	<stop  offset="0.99" style="stop-color:#FFFFFF"/>
</linearGradient>
<polygon class="st17" points="123.1,179.5 181,179.5 181.5,182.9 124.7,182.9 "/>
<linearGradient id="SVGID_11_" gradientUnits="userSpaceOnUse" x1="233.5969" y1="-268.4801" x2="231.1469" y2="-137.25" gradientTransform="matrix(1 0 0 1 -88.24 359.13)">
	<stop  offset="0" style="stop-color:#FFFFFF;stop-opacity:0"/>
	<stop  offset="0.99" style="stop-color:#FFFFFF"/>
</linearGradient>
<polygon class="st18" points="126.1,185.9 160.2,185.9 161,188.9 127.4,188.9 "/>
<linearGradient id="SVGID_12_" gradientUnits="userSpaceOnUse" x1="317.7341" y1="-273.1401" x2="315.1141" y2="-133.7701" gradientTransform="matrix(1 0 0 1 -88.24 359.13)">
	<stop  offset="0" style="stop-color:#FFFFFF;stop-opacity:0"/>
	<stop  offset="0.99" style="stop-color:#FFFFFF"/>
</linearGradient>
<polygon class="st19" points="173.9,185.9 281.3,185.9 280.1,188.9 174.6,188.9 "/>
<linearGradient id="SVGID_13_" gradientUnits="userSpaceOnUse" x1="258.9318" y1="-263.78" x2="256.5818" y2="-138.63" gradientTransform="matrix(1 0 0 1 -88.24 359.13)">
	<stop  offset="0" style="stop-color:#FFFFFF;stop-opacity:0"/>
	<stop  offset="0.99" style="stop-color:#FFFFFF"/>
</linearGradient>
<polygon class="st20" points="146,192 191.4,192 191.7,194.9 147.1,194.9 "/>
<linearGradient id="SVGID_14_" gradientUnits="userSpaceOnUse" x1="278.4063" y1="-259.2801" x2="276.1563" y2="-139.8101" gradientTransform="matrix(1 0 0 1 -88.24 359.13)">
	<stop  offset="0" style="stop-color:#FFFFFF;stop-opacity:0"/>
	<stop  offset="0.99" style="stop-color:#FFFFFF"/>
</linearGradient>
<polygon class="st21" points="162.2,197.6 214.5,197.6 214.4,200.4 162.9,200.4 "/>
<linearGradient id="SVGID_15_" gradientUnits="userSpaceOnUse" x1="329.8282" y1="-257.34" x2="327.6182" y2="-139.32" gradientTransform="matrix(1 0 0 1 -88.24 359.13)">
	<stop  offset="0" style="stop-color:#FFFFFF;stop-opacity:0"/>
	<stop  offset="0.99" style="stop-color:#FFFFFF"/>
</linearGradient>
<polygon class="st22" points="217.9,197.6 261.8,197.6 260.9,200.7 217.8,200.7 "/>
<linearGradient id="SVGID_16_" gradientUnits="userSpaceOnUse" x1="273.2954" y1="-253.2501" x2="271.2054" y2="-141.3701" gradientTransform="matrix(1 0 0 1 -88.24 359.13)">
	<stop  offset="0" style="stop-color:#FFFFFF;stop-opacity:0"/>
	<stop  offset="0.99" style="stop-color:#FFFFFF"/>
</linearGradient>
<polygon class="st23" points="163.6,202.9 202.7,202.9 202.9,205.4 164.3,205.4 "/>
<linearGradient id="SVGID_17_" gradientUnits="userSpaceOnUse" x1="337.0278" y1="-256.81" x2="334.8378" y2="-139.82" gradientTransform="matrix(1 0 0 1 -88.24 359.13)">
	<stop  offset="0" style="stop-color:#FFFFFF;stop-opacity:0"/>
	<stop  offset="0.99" style="stop-color:#FFFFFF"/>
</linearGradient>
<polygon class="st24" points="206.5,202.9 287.3,202.9 286.1,205.6 206.6,205.6 "/>
<linearGradient id="SVGID_18_" gradientUnits="userSpaceOnUse" x1="251.0872" y1="-220.87" x2="249.1172" y2="-115.6301" gradientTransform="matrix(1 0 0 1 -88.24 359.13)">
	<stop  offset="0" style="stop-color:#FFFFFF;stop-opacity:0"/>
	<stop  offset="0.99" style="stop-color:#FFFFFF"/>
</linearGradient>
<polygon class="st25" points="137,209.6 185.6,209.6 186,212 138.1,212 "/>
<linearGradient id="SVGID_19_" gradientUnits="userSpaceOnUse" x1="243.3824" y1="-215.6199" x2="241.5623" y2="-118.3999" gradientTransform="matrix(1 0 0 1 -88.24 359.13)">
	<stop  offset="0" style="stop-color:#FFFFFF;stop-opacity:0"/>
	<stop  offset="0.99" style="stop-color:#FFFFFF"/>
</linearGradient>
<polygon class="st26" points="139.1,214.1 167.9,214.1 168.5,216.3 140.1,216.3 "/>
<linearGradient id="SVGID_20_" gradientUnits="userSpaceOnUse" x1="314.6905" y1="-222.02" x2="312.6705" y2="-114.73" gradientTransform="matrix(1 0 0 1 -88.24 359.13)">
	<stop  offset="0" style="stop-color:#FFFFFF;stop-opacity:0"/>
	<stop  offset="0.99" style="stop-color:#FFFFFF"/>
</linearGradient>
<polygon class="st27" points="179.6,214.1 270.4,214.1 269.6,216.3 180,216.3 "/>
<linearGradient id="SVGID_21_" gradientUnits="userSpaceOnUse" x1="264.7" y1="-213.52" x2="262.92" y2="-119.18" gradientTransform="matrix(1 0 0 1 -88.24 359.13)">
	<stop  offset="0" style="stop-color:#FFFFFF;stop-opacity:0"/>
	<stop  offset="0.99" style="stop-color:#FFFFFF"/>
</linearGradient>
<polygon class="st28" points="155.7,218.5 194.2,218.5 194.5,220.6 156.4,220.6 "/>
<linearGradient id="SVGID_22_" gradientUnits="userSpaceOnUse" x1="281.2132" y1="-211.3299" x2="279.4932" y2="-119.99" gradientTransform="matrix(1 0 0 1 -88.24 359.13)">
	<stop  offset="0" style="stop-color:#FFFFFF;stop-opacity:0"/>
	<stop  offset="0.99" style="stop-color:#FFFFFF"/>
</linearGradient>
<polygon class="st29" points="169.2,222.6 213.9,222.6 213.9,224.6 169.8,224.6 "/>
<linearGradient id="SVGID_23_" gradientUnits="userSpaceOnUse" x1="325.1575" y1="-209.24" x2="323.4875" y2="-119.75" gradientTransform="matrix(1 0 0 1 -88.24 359.13)">
	<stop  offset="0" style="stop-color:#FFFFFF;stop-opacity:0"/>
	<stop  offset="0.99" style="stop-color:#FFFFFF"/>
</linearGradient>
<polygon class="st30" points="216.8,222.6 254.3,222.6 253.7,224.8 216.8,224.8 "/>
<linearGradient id="SVGID_24_" gradientUnits="userSpaceOnUse" x1="276.7301" y1="-207.05" x2="275.1301" y2="-121.31" gradientTransform="matrix(1 0 0 1 -88.24 359.13)">
	<stop  offset="0" style="stop-color:#FFFFFF;stop-opacity:0"/>
	<stop  offset="0.99" style="stop-color:#FFFFFF"/>
</linearGradient>
<polygon class="st31" points="170.2,226.5 203.9,226.5 203.9,228.3 170.7,228.3 "/>
<linearGradient id="SVGID_25_" gradientUnits="userSpaceOnUse" x1="331.4814" y1="-211.34" x2="329.7714" y2="-119.9" gradientTransform="matrix(1 0 0 1 -88.24 359.13)">
	<stop  offset="0" style="stop-color:#FFFFFF;stop-opacity:0"/>
	<stop  offset="0.99" style="stop-color:#FFFFFF"/>
</linearGradient>
<polygon class="st32" points="207.1,226.5 276.5,226.5 275.5,228.5 207.1,228.5 "/>
<g class="st33">
	<polygon class="st3" points="9.2,201.4 45.8,201.4 46.2,203.3 10.4,203.3 	"/>
	<polygon class="st3" points="11.5,205.1 32.9,205.1 33.5,206.7 12.5,206.7 	"/>
	<polygon class="st3" points="41.5,205.1 108.8,205.1 107.9,206.7 42,206.7 	"/>
	<polygon class="st3" points="24.3,208.4 52.5,208.4 52.8,210.1 25.1,210.1 	"/>
	<polygon class="st3" points="34.5,211.6 66.9,211.6 66.8,213.1 35.1,213.1 	"/>
	<polygon class="st3" points="69,211.6 96.1,211.6 95.5,213.3 68.9,213.3 	"/>
	<polygon class="st3" points="35.6,214.5 59.7,214.5 59.8,215.8 36.1,215.8 	"/>
	<polygon class="st3" points="62,214.5 111.6,214.5 110.7,215.9 62,215.9 	"/>
	<polygon class="st3" points="19.6,218.1 49.3,218.1 49.5,219.4 20.4,219.4 	"/>
	<polygon class="st3" points="21.1,220.5 38.6,220.5 39,221.7 21.8,221.7 	"/>
	<polygon class="st3" points="45.7,220.5 100.8,220.5 100.2,221.7 46,221.7 	"/>
	<polygon class="st3" points="31.3,222.8 54.6,222.8 54.8,223.9 31.9,223.9 	"/>
	<polygon class="st3" points="39.6,225 66.5,225 66.5,226 40,226 	"/>
	<polygon class="st3" points="68.2,225 90.8,225 90.3,226.1 68.2,226.1 	"/>
	<polygon class="st3" points="40.3,227 60.5,227 60.5,227.9 40.7,227.9 	"/>
	<polygon class="st3" points="62.4,227 103.9,227 103.2,228 62.4,228 	"/>
	<polygon class="st3" points="26.7,229.5 51.7,229.5 51.9,230.4 27.2,230.4 	"/>
	<polygon class="st3" points="27.8,231.2 42.6,231.2 42.9,232.1 28.3,232.1 	"/>
	<polygon class="st3" points="48.6,231.2 95.2,231.2 94.8,232.1 48.8,232.1 	"/>
	<polygon class="st3" points="36.3,232.9 56.1,232.9 56.2,233.7 36.7,233.7 	"/>
	<polygon class="st3" points="43.2,234.4 66.2,234.4 66.2,235.2 43.5,235.2 	"/>
	<polygon class="st3" points="67.7,234.4 86.9,234.4 86.6,235.3 67.7,235.3 	"/>
	<polygon class="st3" points="43.8,235.9 61,235.9 61.1,236.6 44,236.6 	"/>
	<polygon class="st3" points="62.7,235.9 98.3,235.9 97.8,236.7 62.7,236.7 	"/>
</g>
<g class="st33">
	<polygon class="st3" points="329.9,175.1 360,175.1 359.1,176.8 329.7,176.8 	"/>
	<polygon class="st3" points="329.6,178.3 347.2,178.3 346.7,179.7 329.4,179.7 	"/>
	<polygon class="st3" points="354.3,178.3 409.6,178.3 407.9,179.7 353.6,179.7 	"/>
	<polygon class="st3" points="338,181.2 361.3,181.2 360.5,182.6 337.7,182.6 	"/>
	<polygon class="st3" points="344.6,183.9 371.2,183.9 370.2,185.2 344.2,185.2 	"/>
	<polygon class="st3" points="372.9,183.9 395.2,183.9 393.7,185.3 371.9,185.3 	"/>
	<polygon class="st3" points="343.7,186.4 363.5,186.4 362.8,187.5 343.3,187.5 	"/>
	<polygon class="st3" points="365.4,186.4 406.2,186.4 404.6,187.6 364.6,187.6 	"/>
	<polygon class="st3" points="328.4,189.4 352.8,189.4 352.3,190.6 328.3,190.6 	"/>
	<polygon class="st3" points="328.2,191.6 342.6,191.6 342.2,192.5 328.1,192.5 	"/>
	<polygon class="st3" points="348.4,191.6 393.7,191.6 392.5,192.5 348,192.5 	"/>
	<polygon class="st3" points="335.2,193.5 354.4,193.5 353.8,194.5 335,194.5 	"/>
	<polygon class="st3" points="340.7,195.4 362.8,195.4 362.2,196.2 340.4,196.2 	"/>
	<polygon class="st3" points="364.3,195.4 382.8,195.4 381.7,196.4 363.5,196.4 	"/>
	<polygon class="st3" points="340.1,197.1 356.6,197.1 356.1,197.9 339.9,197.9 	"/>
	<polygon class="st3" points="358.2,197.1 392.3,197.1 391.2,198 357.6,198 	"/>
	<polygon class="st3" points="327.4,199.2 347.9,199.2 347.5,200 327.3,200 	"/>
	<polygon class="st3" points="327.2,200.7 339.4,200.7 339.1,201.4 327.1,201.4 	"/>
	<polygon class="st3" points="344.3,200.7 382.6,200.7 381.8,201.4 344,201.4 	"/>
	<polygon class="st3" points="333.2,202.1 349.5,202.1 349.1,202.8 333.1,202.8 	"/>
	<polygon class="st3" points="338,203.5 356.9,203.5 356.4,204.1 337.8,204.1 	"/>
	<polygon class="st3" points="358.1,203.5 373.9,203.5 373.1,204.2 357.5,204.2 	"/>
	<polygon class="st3" points="337.5,204.8 351.7,204.8 351.4,205.3 337.3,205.3 	"/>
	<polygon class="st3" points="353.1,204.8 382.4,204.8 381.5,205.4 352.7,205.4 	"/>
</g>
</svg>
